<?xml version="1.0" encoding="utf-8"?>
<!-- Generator: Adobe Illustrator 26.0.2, SVG Export Plug-In . SVG Version: 6.00 Build 0)  -->
<svg version="1.1" id="Слой_1" xmlns="http://www.w3.org/2000/svg" xmlns:xlink="http://www.w3.org/1999/xlink" x="0px" y="0px"
	 viewBox="0 0 100 100" style="enable-background:new 0 0 100 100;" xml:space="preserve">
<style type="text/css">
	.st0{fill:#449836;}
	.st1{fill:#439936;}
</style>
<path class="st0" d="M50.4,98.8l0-1c1,0,2,0,3-0.1l0.1,1C52.4,98.8,51.4,98.8,50.4,98.8z M47.3,98.7c-1-0.1-2-0.2-3-0.3l0.1-1
	c1,0.1,2,0.2,3,0.3L47.3,98.7z M56.4,98.5l-0.1-1c1-0.1,2-0.3,3-0.5l0.2,1C58.5,98.2,57.4,98.3,56.4,98.5z M41.3,97.9
	c-1-0.2-2-0.4-3-0.6l0.2-1c1,0.2,1.9,0.4,2.9,0.6L41.3,97.9z M62.4,97.4l-0.2-1c1-0.2,1.9-0.5,2.9-0.8l0.3,1
	C64.4,96.8,63.4,97.1,62.4,97.4z M35.4,96.5c-1-0.3-1.9-0.6-2.9-1l0.3-0.9c0.9,0.3,1.9,0.7,2.8,0.9L35.4,96.5z M68.2,95.5l-0.4-0.9
	c0.9-0.4,1.9-0.7,2.8-1.2l0.4,0.9C70.1,94.8,69.2,95.2,68.2,95.5z M29.6,94.4c-0.9-0.4-1.9-0.8-2.8-1.3l0.5-0.9
	c0.9,0.4,1.8,0.9,2.7,1.3L29.6,94.4z M73.8,93l-0.5-0.9c0.9-0.5,1.7-1,2.6-1.5l0.5,0.9C75.5,92,74.6,92.5,73.8,93z M24.2,91.6
	c-0.9-0.5-1.7-1.1-2.6-1.6l0.6-0.8c0.8,0.6,1.7,1.1,2.5,1.6L24.2,91.6z M78.9,89.8L78.3,89c0.8-0.6,1.6-1.2,2.4-1.8l0.6,0.8
	C80.6,88.6,79.7,89.2,78.9,89.8z M19.2,88.2c-0.8-0.6-1.6-1.3-2.3-2l0.7-0.7c0.7,0.7,1.5,1.3,2.3,1.9L19.2,88.2z M83.7,86L83,85.2
	c0.7-0.7,1.5-1.4,2.1-2.1l0.7,0.7C85.2,84.6,84.4,85.3,83.7,86z M14.7,84.1c-0.7-0.7-1.4-1.5-2-2.3l0.8-0.6c0.6,0.8,1.3,1.5,2,2.2
	L14.7,84.1z M87.9,81.6L87.1,81c0.6-0.8,1.3-1.5,1.9-2.3l0.8,0.6C89.2,80,88.6,80.8,87.9,81.6z M10.7,79.5c-0.6-0.8-1.2-1.7-1.7-2.5
	l0.8-0.5c0.5,0.8,1.1,1.7,1.7,2.5L10.7,79.5z M91.6,76.7l-0.8-0.5c0.5-0.8,1.1-1.7,1.6-2.5l0.9,0.5C92.6,75,92.1,75.9,91.6,76.7z
	 M7.5,74.3c-0.5-0.9-0.9-1.8-1.4-2.7L7,71.2c0.4,0.9,0.9,1.8,1.3,2.7L7.5,74.3z M94.6,71.4L93.7,71c0.4-0.9,0.8-1.8,1.2-2.7l0.9,0.4
	C95.4,69.6,95,70.5,94.6,71.4z M4.9,68.8c-0.4-0.9-0.7-1.9-1-2.9l1-0.3c0.3,0.9,0.6,1.9,1,2.8L4.9,68.8z M96.9,65.8l-0.9-0.3
	c0.3-0.9,0.6-1.9,0.9-2.9l1,0.3C97.5,63.8,97.2,64.8,96.9,65.8z M3,63c-0.2-1-0.5-2-0.6-3l1-0.2c0.2,1,0.4,2,0.6,2.9L3,63z
	 M98.4,59.9l-1-0.2c0.2-1,0.4-2,0.5-2.9l1,0.1C98.8,57.9,98.6,58.9,98.4,59.9z M1.9,57c-0.1-1-0.2-2-0.3-3l1-0.1c0.1,1,0.2,2,0.3,3
	L1.9,57z M99.2,53.9l-1-0.1c0.1-1,0.1-2,0.1-3v-0.2h1v0.2C99.3,51.8,99.3,52.9,99.2,53.9z M1.5,50.9L1.5,50.9c0-1.1,0-2.1,0.1-3
	l1,0.1c-0.1,1-0.1,1.9-0.1,2.9L1.5,50.9z M98.2,47.6c-0.1-1-0.2-2-0.3-3l1-0.1c0.1,1,0.2,2,0.3,3L98.2,47.6z M2.9,45l-1-0.1
	c0.1-1,0.3-2,0.5-3l1,0.2C3.2,43,3,44,2.9,45z M97.4,41.7c-0.2-1-0.4-1.9-0.7-2.9l1-0.3c0.3,1,0.5,2,0.7,3L97.4,41.7z M4,39.1
	l-1-0.2c0.2-1,0.5-2,0.8-2.9l1,0.3C4.5,37.2,4.2,38.1,4,39.1z M95.9,36c-0.3-0.9-0.7-1.9-1-2.8l0.9-0.4c0.4,0.9,0.7,1.9,1.1,2.8
	L95.9,36z M5.8,33.4L4.8,33c0.4-0.9,0.8-1.9,1.2-2.8l0.9,0.4C6.5,31.5,6.1,32.5,5.8,33.4z M93.6,30.5c-0.4-0.9-0.9-1.8-1.4-2.6
	l0.9-0.5c0.5,0.9,1,1.8,1.4,2.7L93.6,30.5z M8.2,28l-0.9-0.5c0.5-0.9,1-1.8,1.5-2.6l0.8,0.5C9.2,26.2,8.7,27.1,8.2,28z M90.6,25.3
	c-0.5-0.8-1.1-1.6-1.7-2.4l0.8-0.6c0.6,0.8,1.2,1.6,1.8,2.5L90.6,25.3z M11.4,22.9l-0.8-0.6c0.6-0.8,1.2-1.6,1.9-2.4l0.8,0.6
	C12.6,21.4,12,22.1,11.4,22.9z M87,20.5c-0.6-0.7-1.3-1.5-2-2.2l0.7-0.7c0.7,0.7,1.4,1.5,2.1,2.2L87,20.5z M15.2,18.4l-0.7-0.7
	c0.7-0.7,1.4-1.4,2.2-2.1l0.7,0.7C16.6,17,15.9,17.7,15.2,18.4z M82.9,16.3c-0.7-0.7-1.5-1.3-2.3-1.9l0.6-0.8c0.8,0.6,1.6,1.3,2.3,2
	L82.9,16.3z M19.6,14.4L19,13.6c0.8-0.6,1.6-1.2,2.4-1.8l0.6,0.8C21.2,13.1,20.4,13.7,19.6,14.4z M78.2,12.5
	c-0.8-0.6-1.7-1.1-2.5-1.6l0.5-0.9c0.9,0.5,1.7,1.1,2.6,1.7L78.2,12.5z M24.5,11L24,10.1c0.9-0.5,1.8-1,2.7-1.5l0.5,0.9
	C26.3,10,25.4,10.5,24.5,11z M73.1,9.4c-0.9-0.5-1.8-0.9-2.7-1.3l0.4-0.9c0.9,0.4,1.8,0.9,2.7,1.3L73.1,9.4z M29.8,8.2l-0.4-0.9
	c0.9-0.4,1.9-0.8,2.8-1.1l0.3,0.9C31.7,7.5,30.7,7.9,29.8,8.2z M67.7,7c-0.9-0.4-1.9-0.7-2.8-1l0.3-1c1,0.3,1.9,0.6,2.9,1L67.7,7z
	 M35.4,6.2l-0.3-1c1-0.3,2-0.6,2.9-0.8l0.2,1C37.4,5.6,36.4,5.9,35.4,6.2z M62,5.2C61,4.9,60,4.7,59,4.6l0.2-1c1,0.2,2,0.4,3,0.6
	L62,5.2z M41.2,4.8l-0.2-1c1-0.2,2-0.3,3-0.5l0.1,1C43.2,4.4,42.2,4.6,41.2,4.8z M56.1,4.1c-1-0.1-2-0.2-3-0.3l0.1-1
	c1,0.1,2,0.1,3,0.3L56.1,4.1z M47.2,4l-0.1-1c1-0.1,2-0.2,3-0.2l0,1C49.1,3.8,48.1,3.9,47.2,4z"/>
<g>
	<path class="st1" d="M54.8,81.1h-9c-0.3,0-0.7-0.2-0.7-0.6l-1.4-5.9c-1.9-0.5-3.8-1.3-5.5-2.3L33,75.5c-0.3,0.2-0.7,0.1-0.9-0.1
		L25.7,69c-0.2-0.2-0.3-0.6-0.1-0.9l3.2-5.2c-1-1.7-1.7-3.6-2.3-5.5L20.6,56C20.3,56,20,55.7,20,55.3v-9c0-0.3,0.2-0.7,0.6-0.7
		l5.9-1.4c0.5-1.9,1.3-3.8,2.3-5.5l-3.2-5.2c-0.2-0.3-0.1-0.7,0.1-0.9l6.4-6.4c0.2-0.2,0.6-0.3,0.9-0.1l5.2,3.2
		c1.7-1,3.6-1.7,5.5-2.3l1.4-5.9c0.1-0.3,0.4-0.6,0.7-0.6h9c0.3,0,0.7,0.2,0.7,0.6l1.4,5.9c1.9,0.5,3.8,1.3,5.5,2.3l5.2-3.2
		c0.3-0.2,0.7-0.1,0.9,0.1l6.4,6.4c0.2,0.2,0.3,0.6,0.1,0.9l-3.2,5.2c1,1.7,1.7,3.6,2.3,5.5l5.9,1.4c0.3,0.1,0.6,0.4,0.6,0.7v9
		c0,0.3-0.2,0.7-0.6,0.7L74,57.4c-0.5,1.9-1.3,3.8-2.3,5.5l3.2,5.2c0.2,0.3,0.1,0.7-0.1,0.9l-6.4,6.4c-0.2,0.2-0.6,0.3-0.9,0.1
		l-5.2-3.2c-1.7,1-3.6,1.7-5.5,2.3l-1.4,5.9C55.4,80.8,55.1,81.1,54.8,81.1z M46.4,79.6h7.8l1.3-5.8c0.1-0.3,0.3-0.5,0.5-0.6
		c2.1-0.5,4.1-1.4,6-2.5c0.2-0.1,0.5-0.1,0.8,0l5.1,3.1l5.5-5.5l-3.1-5.1c-0.1-0.2-0.2-0.5,0-0.8c1.1-1.9,1.9-3.9,2.5-6
		c0.1-0.3,0.3-0.5,0.6-0.5l5.8-1.3v-7.8l-5.8-1.3c-0.3-0.1-0.5-0.3-0.6-0.5c-0.5-2.1-1.4-4.1-2.5-6c-0.1-0.2-0.1-0.5,0-0.8l3.1-5.1
		l-5.5-5.5l-5.1,3.1c-0.2,0.1-0.5,0.2-0.8,0c-1.9-1.1-3.9-1.9-6-2.5c-0.3-0.1-0.5-0.3-0.5-0.6l-1.3-5.8h-7.8L45,27.9
		c-0.1,0.3-0.3,0.5-0.5,0.6c-2.1,0.5-4.1,1.4-6,2.5c-0.2,0.1-0.5,0.1-0.8,0l-5.1-3.1l-5.5,5.5l3.1,5.1c0.1,0.2,0.2,0.5,0,0.8
		c-1.1,1.9-1.9,3.9-2.5,6c-0.1,0.3-0.3,0.5-0.6,0.5l-5.8,1.3v7.8l5.8,1.3c0.3,0.1,0.5,0.3,0.6,0.5c0.5,2.1,1.4,4.1,2.5,6
		c0.1,0.2,0.1,0.5,0,0.8l-3.1,5.1l5.5,5.5l5.1-3.1c0.2-0.1,0.5-0.2,0.8,0c1.9,1.1,3.9,1.9,6,2.5c0.3,0.1,0.5,0.3,0.5,0.6L46.4,79.6z
		 M79.8,55.3L79.8,55.3L79.8,55.3z"/>
	<path class="st1" d="M50.3,58.3c-2.7,0-4.8-2.3-4.8-5.3v-1.5c0-3,2.1-5.3,4.8-5.3c2.7,0,4.8,2.3,4.8,5.3v1.5
		C55.1,55.9,53,58.3,50.3,58.3z M50.3,47.5c-1.8,0-3.3,1.7-3.3,3.8v1.5c0,2.2,1.4,3.8,3.3,3.8c1.8,0,3.3-1.7,3.3-3.8v-1.5
		C53.6,49.2,52.1,47.5,50.3,47.5z"/>
	<path class="st1" d="M57,63.6c-0.4,0-0.8-0.3-0.8-0.8v-1.3c0-2-3.9-3.3-6-3.3c-2.1,0-6,1.2-6,3.3v1.3c0,0.4-0.3,0.8-0.8,0.8
		s-0.8-0.3-0.8-0.8v-1.3c0-3.2,4.8-4.8,7.5-4.8c2.7,0,7.5,1.6,7.5,4.8v1.3C57.8,63.3,57.4,63.6,57,63.6z"/>
	<path class="st1" d="M62.4,51.6c-2.7,0-4.8-2.3-4.8-5.3v-1.5c0-3,2.1-5.3,4.8-5.3s4.8,2.3,4.8,5.3v1.5C67.1,49.2,65,51.6,62.4,51.6
		z M62.4,40.8c-1.8,0-3.3,1.7-3.3,3.8v1.5c0,2.2,1.4,3.8,3.3,3.8s3.3-1.7,3.3-3.8v-1.5C65.6,42.5,64.2,40.8,62.4,40.8z"/>
	<path class="st1" d="M69.1,56.9c-0.4,0-0.8-0.3-0.8-0.8v-1.3c0-2-3.9-3.3-6-3.3c-1.1,0-2.6,0.3-3.7,0.9c-0.4,0.2-0.8,0-1-0.4
		c-0.2-0.4,0-0.8,0.4-1c1.3-0.6,3-1,4.3-1c2.7,0,7.5,1.6,7.5,4.8v1.3C69.8,56.6,69.5,56.9,69.1,56.9z"/>
	<path class="st1" d="M38.2,51.6c-2.7,0-4.8-2.3-4.8-5.3v-1.5c0-3,2.1-5.3,4.8-5.3s4.8,2.3,4.8,5.3v1.5C43,49.2,40.9,51.6,38.2,51.6
		z M38.2,40.8c-1.8,0-3.3,1.7-3.3,3.8v1.5c0,2.2,1.4,3.8,3.3,3.8s3.3-1.7,3.3-3.8v-1.5C41.5,42.5,40.1,40.8,38.2,40.8z"/>
	<path class="st1" d="M31.5,56.9c-0.4,0-0.8-0.3-0.8-0.8v-1.3c0-3.2,4.8-4.8,7.5-4.8c1.3,0,3,0.4,4.3,1c0.4,0.2,0.5,0.6,0.4,1
		c-0.2,0.4-0.6,0.5-1,0.4c-1.1-0.5-2.6-0.9-3.7-0.9c-2.1,0-6,1.2-6,3.3v1.3C32.3,56.6,31.9,56.9,31.5,56.9z"/>
</g>
</svg>
