<?xml version="1.0" encoding="utf-8"?>
<!-- Generator: Adobe Illustrator 26.0.2, SVG Export Plug-In . SVG Version: 6.00 Build 0)  -->
<svg version="1.1" id="Слой_1" xmlns="http://www.w3.org/2000/svg" xmlns:xlink="http://www.w3.org/1999/xlink" x="0px" y="0px"
	 viewBox="0 0 100 100" style="enable-background:new 0 0 100 100;" xml:space="preserve">
<style type="text/css">
	.st0{fill:#449836;}
	.st1{fill:#439936;}
	.st2{fill:none;stroke:#439936;stroke-width:1.5;stroke-linecap:round;stroke-linejoin:round;stroke-miterlimit:10;}
</style>
<path class="st0" d="M50.1,98.1l0-1c1,0,2,0,3-0.1l0.1,1C52.1,98.1,51.1,98.1,50.1,98.1z M47,97.9c-1-0.1-2-0.2-3-0.3l0.1-1
	c1,0.1,2,0.2,3,0.3L47,97.9z M56.1,97.7l-0.1-1c1-0.1,2-0.3,3-0.5l0.2,1C58.2,97.5,57.1,97.6,56.1,97.7z M41,97.1
	c-1-0.2-2-0.4-3-0.6l0.2-1c1,0.2,1.9,0.4,2.9,0.6L41,97.1z M62.1,96.6l-0.2-1c1-0.2,1.9-0.5,2.9-0.8l0.3,1
	C64.1,96.1,63.1,96.4,62.1,96.6z M35.1,95.7c-1-0.3-1.9-0.6-2.9-1l0.3-0.9c0.9,0.3,1.9,0.7,2.8,0.9L35.1,95.7z M67.9,94.8l-0.4-0.9
	c0.9-0.4,1.9-0.7,2.8-1.2l0.4,0.9C69.8,94,68.9,94.4,67.9,94.8z M29.3,93.7c-0.9-0.4-1.9-0.8-2.8-1.3l0.5-0.9
	c0.9,0.4,1.8,0.9,2.7,1.3L29.3,93.7z M73.5,92.3L73,91.4c0.9-0.5,1.7-1,2.6-1.5l0.5,0.9C75.2,91.3,74.3,91.8,73.5,92.3z M23.9,90.9
	c-0.9-0.5-1.7-1.1-2.6-1.6l0.6-0.8c0.8,0.6,1.7,1.1,2.5,1.6L23.9,90.9z M78.6,89.1l-0.6-0.8c0.8-0.6,1.6-1.2,2.4-1.8l0.6,0.8
	C80.3,87.9,79.4,88.5,78.6,89.1z M18.9,87.5c-0.8-0.6-1.6-1.3-2.3-2l0.7-0.7c0.7,0.7,1.5,1.3,2.3,1.9L18.9,87.5z M83.4,85.3
	l-0.7-0.7c0.7-0.7,1.5-1.4,2.1-2.1l0.7,0.7C84.9,83.9,84.1,84.6,83.4,85.3z M14.4,83.4c-0.7-0.7-1.4-1.5-2-2.3l0.8-0.6
	c0.6,0.8,1.3,1.5,2,2.2L14.4,83.4z M87.6,80.9l-0.8-0.6c0.6-0.8,1.3-1.5,1.9-2.3l0.8,0.6C88.9,79.3,88.3,80.1,87.6,80.9z M10.4,78.7
	c-0.6-0.8-1.2-1.7-1.7-2.5l0.8-0.5c0.5,0.8,1.1,1.7,1.7,2.5L10.4,78.7z M91.3,76l-0.8-0.5c0.5-0.8,1.1-1.7,1.6-2.5l0.9,0.5
	C92.3,74.3,91.8,75.2,91.3,76z M7.2,73.6c-0.5-0.9-0.9-1.8-1.4-2.7l0.9-0.4c0.4,0.9,0.9,1.8,1.3,2.7L7.2,73.6z M94.3,70.7l-0.9-0.4
	c0.4-0.9,0.8-1.8,1.2-2.7l0.9,0.4C95.1,68.9,94.7,69.8,94.3,70.7z M4.6,68.1c-0.4-0.9-0.7-1.9-1-2.9l1-0.3c0.3,0.9,0.6,1.9,1,2.8
	L4.6,68.1z M96.6,65.1l-0.9-0.3c0.3-0.9,0.6-1.9,0.9-2.9l1,0.3C97.2,63.1,96.9,64.1,96.6,65.1z M2.7,62.3c-0.2-1-0.5-2-0.6-3l1-0.2
	c0.2,1,0.4,2,0.6,2.9L2.7,62.3z M98.1,59.2l-1-0.2c0.2-1,0.4-2,0.5-2.9l1,0.1C98.5,57.2,98.3,58.2,98.1,59.2z M1.6,56.3
	c-0.1-1-0.2-2-0.3-3l1-0.1c0.1,1,0.2,2,0.3,3L1.6,56.3z M98.9,53.1l-1-0.1c0.1-1,0.1-2,0.1-3v-0.2h1v0.2C99,51.1,99,52.1,98.9,53.1z
	 M1.3,50.2L1.3,50.2c0-1.1,0-2.1,0.1-3l1,0.1c-0.1,1-0.1,1.9-0.1,2.9L1.3,50.2z M97.9,46.9c-0.1-1-0.2-2-0.3-3l1-0.1
	c0.1,1,0.2,2,0.3,3L97.9,46.9z M2.6,44.2l-1-0.1c0.1-1,0.3-2,0.5-3l1,0.2C2.9,42.3,2.7,43.2,2.6,44.2z M97.1,41
	c-0.2-1-0.4-1.9-0.7-2.9l1-0.3c0.3,1,0.5,2,0.7,3L97.1,41z M3.7,38.4l-1-0.2c0.2-1,0.5-2,0.8-2.9l1,0.3C4.2,36.4,3.9,37.4,3.7,38.4z
	 M95.6,35.2c-0.3-0.9-0.7-1.9-1-2.8l0.9-0.4c0.4,0.9,0.7,1.9,1.1,2.8L95.6,35.2z M5.5,32.7l-0.9-0.4c0.4-0.9,0.8-1.9,1.2-2.8
	l0.9,0.4C6.2,30.8,5.8,31.7,5.5,32.7z M93.3,29.7c-0.4-0.9-0.9-1.8-1.4-2.6l0.9-0.5c0.5,0.9,1,1.8,1.4,2.7L93.3,29.7z M7.9,27.3
	l-0.9-0.5c0.5-0.9,1-1.8,1.5-2.6l0.8,0.5C8.9,25.5,8.4,26.4,7.9,27.3z M90.3,24.6c-0.5-0.8-1.1-1.6-1.7-2.4l0.8-0.6
	c0.6,0.8,1.2,1.6,1.8,2.5L90.3,24.6z M11.1,22.2l-0.8-0.6c0.6-0.8,1.2-1.6,1.9-2.4l0.8,0.6C12.3,20.6,11.7,21.4,11.1,22.2z
	 M86.7,19.8c-0.6-0.7-1.3-1.5-2-2.2l0.7-0.7c0.7,0.7,1.4,1.5,2.1,2.2L86.7,19.8z M14.9,17.6L14.2,17c0.7-0.7,1.4-1.4,2.2-2.1
	l0.7,0.7C16.3,16.2,15.6,16.9,14.9,17.6z M82.6,15.5c-0.7-0.7-1.5-1.3-2.3-1.9l0.6-0.8c0.8,0.6,1.6,1.3,2.3,2L82.6,15.5z M19.3,13.6
	l-0.6-0.8c0.8-0.6,1.6-1.2,2.4-1.8l0.6,0.8C20.9,12.4,20.1,13,19.3,13.6z M77.9,11.8c-0.8-0.6-1.7-1.1-2.5-1.6l0.5-0.9
	c0.9,0.5,1.7,1.1,2.6,1.7L77.9,11.8z M24.2,10.2l-0.5-0.9c0.9-0.5,1.8-1,2.7-1.5l0.5,0.9C26,9.3,25.1,9.7,24.2,10.2z M72.8,8.7
	c-0.9-0.5-1.8-0.9-2.7-1.3l0.4-0.9c0.9,0.4,1.8,0.9,2.7,1.3L72.8,8.7z M29.5,7.5l-0.4-0.9C30.1,6.2,31,5.8,32,5.5l0.3,0.9
	C31.4,6.8,30.4,7.1,29.5,7.5z M67.4,6.2c-0.9-0.4-1.9-0.7-2.8-1l0.3-1c1,0.3,1.9,0.6,2.9,1L67.4,6.2z M35.1,5.5l-0.3-1
	c1-0.3,1.9-0.6,2.9-0.8l0.2,1C37.1,4.9,36.1,5.2,35.1,5.5z M61.7,4.5c-1-0.2-1.9-0.4-2.9-0.6l0.2-1c1,0.2,2,0.4,3,0.6L61.7,4.5z
	 M40.9,4.1l-0.2-1c1-0.2,2-0.3,3-0.5l0.1,1C42.9,3.7,41.9,3.9,40.9,4.1z M55.8,3.4c-1-0.1-2-0.2-3-0.3l0.1-1c1,0.1,2,0.1,3,0.3
	L55.8,3.4z M46.9,3.3l-0.1-1c1-0.1,2-0.2,3-0.2l0,1C48.9,3.1,47.8,3.2,46.9,3.3z"/>
<g>
	<path class="st1" d="M51.9,34.2c-3.2,0-5.7-2.8-5.7-6.5v-1.9c0-3.6,2.5-6.5,5.7-6.5c3.2,0,5.7,2.8,5.7,6.5v1.9
		C57.6,31.3,55.1,34.2,51.9,34.2z M51.9,20.8c-2.4,0-4.2,2.2-4.2,5v1.9c0,2.8,1.8,5,4.2,5c2.4,0,4.2-2.2,4.2-5v-1.9
		C56.1,23,54.3,20.8,51.9,20.8z"/>
	<path class="st1" d="M56.8,46.2h-8.4c-0.4,0-0.8-0.3-0.8-0.8s0.3-0.8,0.8-0.8h7.3L54.5,42c-0.2-0.4,0-0.8,0.4-1
		c0.4-0.2,0.8,0,1,0.4l1.5,3.7c0.1,0.2,0.1,0.5-0.1,0.7S57,46.2,56.8,46.2z"/>
	<path class="st1" d="M40.1,50.2h-4c-1.2,0-2.3-0.7-2.9-1.9l-0.9-1.9c-0.3-0.7-0.3-1.4,0.1-2.1c0.4-0.6,1-0.9,1.7-0.9h3.6
		c0.2,0,0.3,0.1,0.5,0.2c0.1,0.1,3,2.5,2.8,6C40.9,49.9,40.5,50.2,40.1,50.2z M34.1,44.8c-0.2,0-0.3,0.1-0.4,0.2
		c-0.1,0.2-0.1,0.4,0,0.6l0.9,1.9c0.3,0.6,0.9,1,1.5,1h3.3c-0.1-1.9-1.5-3.4-2-3.8H34.1z"/>
	<path class="st1" d="M50.5,55.5H39.7c-0.8,0-1.5-0.5-1.8-1.2l-2-4.6c-0.2-0.4,0-0.8,0.4-1c0.4-0.2,0.8,0,1,0.4l2,4.6
		c0.1,0.2,0.2,0.3,0.4,0.3h10.9c0.2,0,0.3-0.1,0.4-0.2c0.1-0.2,0.1-0.4,0-0.6l-6.2-14c-0.1-0.3-0.6-1-1.6-1h-9.9
		c-0.5,0-0.6,0.1-0.6,0.1c0,0.1-0.1,0.5,0.4,1.4l2.2,4.1c0.2,0.4,0.1,0.8-0.3,1c-0.4,0.2-0.8,0.1-1-0.3l-2.2-4.1
		c-0.7-1.2-0.8-2.2-0.4-2.8c0.3-0.6,1-0.9,1.9-0.9h9.9c2,0,2.8,1.4,3,1.8l6.2,14c0.3,0.7,0.3,1.4-0.1,2.1
		C51.8,55.2,51.2,55.5,50.5,55.5z"/>
	<path class="st1" d="M41.9,80.2c-0.1,0-0.2,0-0.3,0c-0.4-0.1-0.6-0.6-0.4-1c0.6-1.6,5.2-14.5,5.2-14.7c0.8-1.9,2.6-2.5,4.1-2.5h3.7
		c1.6,0,3-1.5,3-3.2v-7.1c0-0.4,0.3-0.8,0.8-0.8s0.8,0.3,0.8,0.8v7.1c0,2.6-2,4.7-4.5,4.8h-3.7c-1,0-2.3,0.4-2.7,1.5
		c0,0.1-4.6,13-5.2,14.6C42.5,80,42.2,80.2,41.9,80.2z"/>
	<path class="st1" d="M36.3,80.2c-0.1,0-0.1,0-0.2,0c-0.4-0.1-0.7-0.5-0.6-0.9c0-0.2,4.3-18,4.7-19.6c0.9-3.5,3.4-5.6,6.8-5.6
		c0.4,0,0.8,0.3,0.8,0.8s-0.3,0.8-0.8,0.8c-2.7,0-4.6,1.6-5.3,4.5c-0.4,1.6-4.7,19.4-4.7,19.6C37,79.9,36.7,80.2,36.3,80.2z"/>
	<path class="st2" d="M35.6,79.9"/>
	<path class="st1" d="M31.4,80.2c-0.1,0-0.1,0-0.2,0c-0.4-0.1-0.6-0.5-0.5-0.9c0-0.2,4.3-17.2,4.7-19.6c0.6-3.5,3.2-5.7,6.8-5.7
		c0.4,0,0.8,0.3,0.8,0.8s-0.3,0.8-0.8,0.8c-2.8,0-4.8,1.7-5.3,4.4c-0.4,2.4-4.6,19-4.7,19.7C32,79.9,31.7,80.2,31.4,80.2z"/>
	<path class="st1" d="M58.7,70.2h-8.1c-2.9,0-4.5-2.1-4.5-4.1c0-2,1.5-4.1,4.5-4.1h8.7c0.4,0,0.8,0.3,0.8,0.8s-0.3,0.8-0.8,0.8h-8.7
		c-0.9,0-1.7,0.3-2.3,0.8c-0.5,0.5-0.7,1.1-0.7,1.8c0,1.3,0.9,2.6,3,2.6h8.1c2.8,0,3.9-3.4,4.2-4.8c0.6-2.7,4.2-19.6,4.9-23
		c0.3-1.5,0.1-2.6-0.4-3.3c-0.4-0.5-1-0.7-1.9-0.7h-6.1c-0.4,0-0.8-0.3-0.8-0.8s0.3-0.8,0.8-0.8h6.1c1.3,0,2.3,0.4,3,1.3
		c0.9,1,1.1,2.6,0.8,4.5c-0.6,3.4-4.2,20.4-4.9,23.1C63.4,68,61.4,70.2,58.7,70.2z"/>
	<path class="st1" d="M53,80.8c-0.4,0-0.8-0.3-0.8-0.8V69.4c0-0.4,0.3-0.8,0.8-0.8s0.8,0.3,0.8,0.8v10.7
		C53.8,80.5,53.5,80.8,53,80.8z"/>
	<path class="st1" d="M58,80.8h-9.9c-0.4,0-0.8-0.3-0.8-0.8s0.3-0.8,0.8-0.8H58c0.4,0,0.8,0.3,0.8,0.8S58.4,80.8,58,80.8z"/>
	<path class="st1" d="M58.4,52.4l-7.8-1c-0.4-0.1-0.7-0.4-0.7-0.8c0.1-0.4,0.4-0.7,0.8-0.7l7.7,1c1.6,0,3.6-3.3,3.6-4.1
		c0-0.9-0.9-3.9-2-7.1c-1.4-3.8-2.4-5.5-5.7-5.5h-6.2c-0.4,0-0.7,0-1,0c-1.7,0-2.7,0-4.7,3.6c-0.2,0.4-0.7,0.5-1,0.3
		c-0.4-0.2-0.5-0.7-0.3-1c2.4-4.2,3.9-4.4,6.1-4.4c0.3,0,0.6,0,1,0l6.2,0c4.4,0,5.7,2.7,7.1,6.5c0.2,0.6,2.1,5.8,2.1,7.6
		C63.6,48.3,61.1,52.4,58.4,52.4z"/>
</g>
</svg>
