<?xml version="1.0" encoding="utf-8"?>
<!-- Generator: Adobe Illustrator 26.0.2, SVG Export Plug-In . SVG Version: 6.00 Build 0)  -->
<svg version="1.1" id="Слой_1" xmlns="http://www.w3.org/2000/svg" xmlns:xlink="http://www.w3.org/1999/xlink" x="0px" y="0px"
	 viewBox="0 0 100 100" style="enable-background:new 0 0 100 100;" xml:space="preserve">
<style type="text/css">
	.st0{fill:#449836;}
	.st1{fill:#439936;}
</style>
<path class="st0" d="M49.6,98l0-1c1,0,2,0,3-0.1l0.1,1C51.6,98,50.6,98,49.6,98z M46.5,97.8c-1-0.1-2-0.2-3-0.3l0.1-1
	c1,0.1,2,0.2,3,0.3L46.5,97.8z M55.7,97.6l-0.1-1c1-0.1,2-0.3,3-0.5l0.2,1C57.7,97.4,56.7,97.5,55.7,97.6z M40.5,97
	c-1-0.2-2-0.4-3-0.6l0.2-1c1,0.2,1.9,0.4,2.9,0.6L40.5,97z M61.7,96.5l-0.2-1c1-0.2,1.9-0.5,2.9-0.8l0.3,1
	C63.6,96,62.6,96.3,61.7,96.5z M34.6,95.6c-1-0.3-1.9-0.6-2.9-1l0.3-0.9c0.9,0.3,1.9,0.7,2.8,0.9L34.6,95.6z M67.5,94.7l-0.4-0.9
	c0.9-0.4,1.9-0.7,2.8-1.2l0.4,0.9C69.3,93.9,68.4,94.3,67.5,94.7z M28.9,93.6c-0.9-0.4-1.9-0.8-2.8-1.3l0.5-0.9
	c0.9,0.4,1.8,0.9,2.7,1.3L28.9,93.6z M73,92.2l-0.5-0.9c0.9-0.5,1.7-1,2.6-1.5l0.5,0.9C74.8,91.2,73.9,91.7,73,92.2z M23.5,90.8
	c-0.9-0.5-1.7-1.1-2.6-1.6l0.6-0.8c0.8,0.6,1.7,1.1,2.5,1.6L23.5,90.8z M78.2,89l-0.6-0.8c0.8-0.6,1.6-1.2,2.4-1.8l0.6,0.8
	C79.8,87.8,79,88.4,78.2,89z M18.4,87.4c-0.8-0.6-1.6-1.3-2.3-2l0.7-0.7c0.7,0.7,1.5,1.3,2.3,1.9L18.4,87.4z M82.9,85.2l-0.7-0.7
	c0.7-0.7,1.5-1.4,2.1-2.1l0.7,0.7C84.4,83.8,83.7,84.5,82.9,85.2z M13.9,83.3c-0.7-0.7-1.4-1.5-2-2.3l0.8-0.6c0.6,0.8,1.3,1.5,2,2.2
	L13.9,83.3z M87.1,80.8l-0.8-0.6c0.6-0.8,1.3-1.5,1.9-2.3l0.8,0.6C88.4,79.2,87.8,80,87.1,80.8z M10,78.6c-0.6-0.8-1.2-1.7-1.7-2.5
	l0.8-0.5c0.5,0.8,1.1,1.7,1.7,2.5L10,78.6z M90.8,75.9L90,75.4c0.5-0.8,1.1-1.7,1.6-2.5l0.9,0.5C91.9,74.2,91.3,75.1,90.8,75.9z
	 M6.7,73.5c-0.5-0.9-0.9-1.8-1.4-2.7l0.9-0.4c0.4,0.9,0.9,1.8,1.3,2.7L6.7,73.5z M93.8,70.6l-0.9-0.4c0.4-0.9,0.8-1.8,1.2-2.7
	l0.9,0.4C94.7,68.8,94.2,69.7,93.8,70.6z M4.1,68c-0.4-0.9-0.7-1.9-1-2.9l1-0.3c0.3,0.9,0.6,1.9,1,2.8L4.1,68z M96.1,65l-0.9-0.3
	c0.3-0.9,0.6-1.9,0.9-2.9l1,0.3C96.7,63,96.4,64,96.1,65z M2.3,62.1c-0.2-1-0.5-2-0.6-3l1-0.2c0.2,1,0.4,2,0.6,2.9L2.3,62.1z
	 M97.7,59.1l-1-0.2c0.2-1,0.4-2,0.5-2.9l1,0.1C98,57.1,97.9,58.1,97.7,59.1z M1.2,56.2c-0.1-1-0.2-2-0.3-3l1-0.1c0.1,1,0.2,2,0.3,3
	L1.2,56.2z M98.4,53l-1-0.1c0.1-1,0.1-2,0.1-3l0-0.2h1l0,0.2C98.5,51,98.5,52,98.4,53z M1.8,50.1h-1V50c0-1,0-2,0.1-2.9l1,0.1
	c-0.1,1-0.1,1.9-0.1,2.9V50.1z M97.4,46.8c-0.1-1-0.2-2-0.3-3l1-0.1c0.1,1,0.2,2,0.3,3L97.4,46.8z M2.1,44.1l-1-0.1
	c0.1-1,0.3-2,0.5-3l1,0.2C2.4,42.1,2.3,43.1,2.1,44.1z M96.6,40.9c-0.2-1-0.4-1.9-0.7-2.9l1-0.3c0.3,1,0.5,2,0.7,3L96.6,40.9z
	 M3.2,38.3l-1-0.2c0.2-1,0.5-2,0.8-2.9l1,0.3C3.7,36.3,3.4,37.3,3.2,38.3z M95.1,35.1c-0.3-0.9-0.7-1.9-1-2.8L95,32
	c0.4,0.9,0.7,1.9,1.1,2.8L95.1,35.1z M5,32.6l-0.9-0.4c0.4-0.9,0.8-1.9,1.2-2.8l0.9,0.4C5.7,30.7,5.3,31.6,5,32.6z M92.8,29.6
	c-0.4-0.9-0.9-1.8-1.4-2.6l0.9-0.5c0.5,0.9,1,1.8,1.4,2.7L92.8,29.6z M7.5,27.2l-0.9-0.5c0.5-0.9,1-1.8,1.5-2.6L9,24.6
	C8.5,25.4,8,26.3,7.5,27.2z M89.9,24.5c-0.5-0.8-1.1-1.6-1.7-2.4l0.8-0.6c0.6,0.8,1.2,1.6,1.8,2.5L89.9,24.5z M10.7,22.1l-0.8-0.6
	c0.6-0.8,1.2-1.6,1.9-2.4l0.8,0.6C11.9,20.5,11.2,21.3,10.7,22.1z M86.3,19.7c-0.6-0.7-1.3-1.5-2-2.2l0.7-0.7
	c0.7,0.7,1.4,1.5,2.1,2.2L86.3,19.7z M14.5,17.5l-0.7-0.7c0.7-0.7,1.4-1.4,2.2-2.1l0.7,0.7C15.9,16.1,15.2,16.8,14.5,17.5z
	 M82.1,15.4c-0.7-0.7-1.5-1.3-2.3-1.9l0.6-0.8c0.8,0.6,1.6,1.3,2.3,2L82.1,15.4z M18.9,13.5l-0.6-0.8c0.8-0.6,1.6-1.2,2.4-1.8
	l0.6,0.8C20.5,12.3,19.6,12.9,18.9,13.5z M77.4,11.7c-0.8-0.6-1.7-1.1-2.5-1.6l0.5-0.9c0.9,0.5,1.7,1.1,2.6,1.7L77.4,11.7z
	 M23.8,10.1l-0.5-0.9c0.9-0.5,1.8-1,2.7-1.5l0.5,0.9C25.5,9.1,24.6,9.6,23.8,10.1z M72.3,8.6c-0.9-0.5-1.8-0.9-2.7-1.3l0.4-0.9
	c0.9,0.4,1.8,0.9,2.7,1.3L72.3,8.6z M29.1,7.4l-0.4-0.9c0.9-0.4,1.9-0.8,2.8-1.1l0.3,0.9C30.9,6.6,30,7,29.1,7.4z M66.9,6.1
	c-0.9-0.4-1.9-0.7-2.8-1l0.3-1c1,0.3,1.9,0.6,2.9,1L66.9,6.1z M34.7,5.4l-0.3-1c1-0.3,2-0.6,2.9-0.8l0.2,1
	C36.6,4.8,35.6,5.1,34.7,5.4z M61.2,4.4c-1-0.2-1.9-0.4-2.9-0.6l0.2-1c1,0.2,2,0.4,3,0.6L61.2,4.4z M40.5,4l-0.2-1
	c1-0.2,2-0.3,3-0.5l0.1,1C42.4,3.6,41.4,3.8,40.5,4z M55.3,3.3c-1-0.1-2-0.2-3-0.3l0.1-1c1,0.1,2,0.1,3,0.3L55.3,3.3z M46.4,3.2
	l-0.1-1c1-0.1,2-0.2,3-0.2l0,1C48.4,3,47.4,3.1,46.4,3.2z"/>
<g>
	<path class="st1" d="M32.3,83.1c-0.4,0-0.8-0.3-0.8-0.8V44.1c0-0.4,0.3-0.8,0.8-0.8s0.8,0.3,0.8,0.8v38.3
		C33,82.8,32.7,83.1,32.3,83.1z"/>
	<path class="st1" d="M32.3,61c-3.4,0-6.2-3-6.2-6.6V41.2c0-4.6,3.3-8.1,7.6-8.1h8.2c3.8,0,6.7,2.6,7.4,6.4c0.1,0.4-0.2,0.8-0.6,0.9
		c-0.4,0.1-0.8-0.2-0.9-0.6c-0.6-3.1-3-5.2-6-5.2h-8.2c-3.5,0-6.1,2.8-6.1,6.6v13.2c0,2.8,2.1,5.1,4.7,5.1c0.4,0,0.8,0.3,0.8,0.8
		S32.7,61,32.3,61z"/>
	<path class="st1" d="M69.2,69.9H61c-0.4,0-0.8-0.3-0.8-0.8s0.3-0.8,0.8-0.8h7.3l-4-24.1c-0.1-0.4,0.2-0.8,0.6-0.9
		c0.4-0.1,0.8,0.2,0.9,0.6l4.1,25c0,0.2,0,0.4-0.2,0.6S69.4,69.9,69.2,69.9z"/>
	<path class="st1" d="M63.7,83.1c-0.4,0-0.8-0.3-0.8-0.8V69.1c0-0.4,0.3-0.8,0.8-0.8s0.8,0.3,0.8,0.8v13.2
		C64.5,82.8,64.1,83.1,63.7,83.1z"/>
	<path class="st1" d="M39.1,34.6c-3.4,0-6.2-2.9-6.2-6.5v-4.7c0-3.6,2.8-6.5,6.2-6.5s6.2,2.9,6.2,6.5v4.7
		C45.3,31.6,42.5,34.6,39.1,34.6z M39.1,18.4c-2.6,0-4.7,2.2-4.7,5v4.7c0,2.7,2.1,5,4.7,5s4.7-2.2,4.7-5v-4.7
		C43.8,20.6,41.7,18.4,39.1,18.4z"/>
	<path class="st1" d="M50,58.1c-3.4,0-6.2-2.6-6.2-5.9v-2.9c0-3.3,2.8-5.9,6.2-5.9s6.2,2.6,6.2,5.9v2.9C56.3,55.4,53.5,58.1,50,58.1
		z M50,44.9c-2.6,0-4.7,2-4.7,4.4v2.9c0,2.4,2.1,4.4,4.7,4.4s4.7-2,4.7-4.4v-2.9C54.8,46.8,52.6,44.9,50,44.9z"/>
	<path class="st1" d="M54.1,83.1c-0.4,0-0.8-0.3-0.8-0.8v-9.6c0-0.3,0.2-0.6,0.6-0.7c1.3-0.3,2.2-1.6,2.2-3V64
		c0-3.2-2.4-5.9-5.4-5.9H48c-3,0-5.4,2.6-5.4,5.9V69c0,1.4,0.9,2.7,2.2,3c0.3,0.1,0.6,0.4,0.6,0.7v9.6c0,0.4-0.3,0.8-0.8,0.8
		s-0.8-0.3-0.8-0.8v-9c-1.6-0.7-2.7-2.4-2.7-4.3V64c0-4.1,3.1-7.4,6.9-7.4h2.7c3.8,0,6.9,3.3,6.9,7.4V69c0,1.9-1.1,3.6-2.7,4.3v9
		C54.9,82.8,54.6,83.1,54.1,83.1z"/>
	<path class="st1" d="M67.6,60.1c-0.3,0-0.6-0.2-0.7-0.5c-0.1-0.4,0.1-0.8,0.5-1l0.9-0.3c2.4-0.9,3.7-3.5,3.2-6.1
		c-0.7-3.5-1.3-6.2-1.6-8c-0.8-4.7-2.7-6.7-6.1-6.7h-8.2c-1.1,0-2.1,0.2-2.9,0.7c-0.4,0.2-0.8,0.1-1-0.3c-0.2-0.4-0.1-0.8,0.3-1
		c1-0.6,2.3-0.9,3.7-0.9h8.2c4.2,0,6.7,2.6,7.6,8c0.3,1.8,0.8,4.5,1.6,7.9c0.7,3.4-1.1,6.7-4.1,7.9l-0.9,0.3
		C67.8,60.1,67.7,60.1,67.6,60.1z"/>
	<path class="st1" d="M58.7,37.5c-3,0-5.3-2.5-5.3-5.8v-3.3c0-3.1,2.2-4.8,2.3-4.9c0.2-0.1,0.4-0.2,0.6-0.1c0.2,0,0.4,0.1,0.5,0.3
		c0,0,2.5,3.5,5.8,4.8c0.4,0.2,0.6,0.6,0.4,1c-0.2,0.4-0.6,0.6-1,0.4c-0.1,0-0.2-0.1-0.3-0.1v7c0,0.4-0.3,0.7-0.7,0.8L58.7,37.5z
		 M56.1,25.2c-0.5,0.6-1.2,1.7-1.2,3.2v3.3c0,2.4,1.7,4.3,3.8,4.3l1.5,0v-7.1C58.3,27.7,56.8,26.1,56.1,25.2z"/>
	<path class="st1" d="M67.8,34.6c-0.2,0-0.4-0.1-0.5-0.2l-0.1-0.2c-0.6-0.6-1.4-1.5-1.4-3.3v-5.7c0-3.8-3-6.8-6.8-6.8
		c-3.9,0-6.8,2.7-6.8,5.1c0,0.4-0.3,0.8-0.8,0.8s-0.8-0.3-0.8-0.8c0-3.5,3.9-6.6,8.3-6.6c4.6,0,8.3,3.7,8.3,8.3v5.7
		c0,1.2,0.5,1.7,1,2.3l0.2,0.2c0.3,0.3,0.3,0.8,0,1.1C68.2,34.5,68,34.6,67.8,34.6z"/>
</g>
</svg>
