<?xml version="1.0" encoding="utf-8"?>
<!-- Generator: Adobe Illustrator 26.0.2, SVG Export Plug-In . SVG Version: 6.00 Build 0)  -->
<svg version="1.1" id="Слой_1" xmlns="http://www.w3.org/2000/svg" xmlns:xlink="http://www.w3.org/1999/xlink" x="0px" y="0px"
	 viewBox="0 0 100 100" style="enable-background:new 0 0 100 100;" xml:space="preserve">
<style type="text/css">
	.st0{fill:#449836;}
	.st1{fill:#439936;}
</style>
<path class="st0" d="M50.1,98l0-1c1,0,2,0,3-0.1l0.1,1C52.1,98,51.1,98,50.1,98z M47,97.8c-1-0.1-2-0.2-3-0.3l0.1-1
	c1,0.1,2,0.2,3,0.3L47,97.8z M56.1,97.7l-0.1-1c1-0.1,2-0.3,3-0.5l0.2,1C58.2,97.4,57.1,97.5,56.1,97.7z M41,97.1
	c-1-0.2-2-0.4-3-0.6l0.2-1c1,0.2,1.9,0.4,2.9,0.6L41,97.1z M62.1,96.5l-0.2-1c1-0.2,1.9-0.5,2.9-0.8l0.3,1
	C64.1,96,63.1,96.3,62.1,96.5z M35.1,95.6c-1-0.3-1.9-0.6-2.9-1l0.3-0.9c0.9,0.3,1.9,0.7,2.8,0.9L35.1,95.6z M67.9,94.7l-0.4-0.9
	c0.9-0.4,1.9-0.7,2.8-1.2l0.4,0.9C69.8,94,68.9,94.4,67.9,94.7z M29.4,93.6c-0.9-0.4-1.9-0.8-2.8-1.3l0.5-0.9
	c0.9,0.4,1.8,0.9,2.7,1.3L29.4,93.6z M73.5,92.2L73,91.3c0.9-0.5,1.7-1,2.6-1.5l0.5,0.9C75.2,91.2,74.4,91.7,73.5,92.2z M23.9,90.8
	c-0.9-0.5-1.7-1.1-2.6-1.6l0.6-0.8c0.8,0.6,1.7,1.1,2.5,1.6L23.9,90.8z M78.6,89l-0.6-0.8c0.8-0.6,1.6-1.2,2.4-1.8l0.6,0.8
	C80.3,87.8,79.5,88.4,78.6,89z M18.9,87.4c-0.8-0.6-1.6-1.3-2.3-2l0.7-0.7c0.7,0.7,1.5,1.3,2.3,1.9L18.9,87.4z M83.4,85.2l-0.7-0.7
	c0.7-0.7,1.5-1.4,2.1-2.1l0.7,0.7C84.9,83.8,84.1,84.5,83.4,85.2z M14.4,83.3c-0.7-0.7-1.4-1.5-2-2.3l0.8-0.6c0.6,0.8,1.3,1.5,2,2.2
	L14.4,83.3z M87.6,80.8l-0.8-0.6c0.6-0.8,1.3-1.5,1.9-2.3l0.8,0.6C88.9,79.2,88.3,80,87.6,80.8z M10.4,78.6
	c-0.6-0.8-1.2-1.7-1.7-2.5l0.8-0.5c0.5,0.8,1.1,1.7,1.7,2.5L10.4,78.6z M91.3,75.9l-0.8-0.5c0.5-0.8,1.1-1.7,1.6-2.5l0.9,0.5
	C92.3,74.2,91.8,75.1,91.3,75.9z M7.2,73.5c-0.5-0.9-0.9-1.8-1.4-2.7l0.9-0.4C7.1,71.3,7.6,72.2,8,73L7.2,73.5z M94.3,70.6l-0.9-0.4
	c0.4-0.9,0.8-1.8,1.2-2.7l0.9,0.4C95.1,68.8,94.7,69.7,94.3,70.6z M4.6,68c-0.4-0.9-0.7-1.9-1-2.9l1-0.3c0.3,0.9,0.6,1.9,1,2.8
	L4.6,68z M96.6,65l-0.9-0.3c0.3-0.9,0.6-1.9,0.9-2.9l1,0.3C97.2,63,96.9,64,96.6,65z M2.7,62.2c-0.2-1-0.5-2-0.6-3l1-0.2
	c0.2,1,0.4,2,0.6,2.9L2.7,62.2z M98.1,59.1l-1-0.2c0.2-1,0.4-2,0.5-2.9l1,0.1C98.5,57.1,98.3,58.1,98.1,59.1z M1.6,56.2
	c-0.1-1-0.2-2-0.3-3l1-0.1c0.1,1,0.2,2,0.3,3L1.6,56.2z M98.9,53l-1-0.1c0.1-1,0.1-2,0.1-3l0-0.2h1l0,0.2C99,51,99,52,98.9,53z
	 M1.3,50.1L1.3,50.1c0-1.1,0-2.1,0.1-3l1,0.1c-0.1,1-0.1,1.9-0.1,2.9L1.3,50.1z M97.9,46.8c-0.1-1-0.2-2-0.3-3l1-0.1
	c0.1,1,0.2,2,0.3,3L97.9,46.8z M2.6,44.1l-1-0.1c0.1-1,0.3-2,0.5-3l1,0.2C2.9,42.2,2.7,43.2,2.6,44.1z M97.1,40.9
	c-0.2-1-0.4-1.9-0.7-2.9l1-0.3c0.3,1,0.5,2,0.7,3L97.1,40.9z M3.7,38.3l-1-0.2c0.2-1,0.5-2,0.8-2.9l1,0.3
	C4.2,36.3,3.9,37.3,3.7,38.3z M95.6,35.1c-0.3-0.9-0.7-1.9-1-2.8l0.9-0.4c0.4,0.9,0.7,1.9,1.1,2.8L95.6,35.1z M5.5,32.6l-0.9-0.4
	c0.4-0.9,0.8-1.9,1.2-2.8l0.9,0.4C6.2,30.7,5.8,31.7,5.5,32.6z M93.3,29.6c-0.4-0.9-0.9-1.8-1.4-2.6l0.9-0.5c0.5,0.9,1,1.8,1.4,2.7
	L93.3,29.6z M7.9,27.2l-0.9-0.5c0.5-0.9,1-1.8,1.5-2.6l0.8,0.5C8.9,25.4,8.4,26.3,7.9,27.2z M90.3,24.5c-0.5-0.8-1.1-1.6-1.7-2.4
	l0.8-0.6c0.6,0.8,1.2,1.6,1.8,2.5L90.3,24.5z M11.1,22.1l-0.8-0.6c0.6-0.8,1.2-1.6,1.9-2.4l0.8,0.6C12.3,20.5,11.7,21.3,11.1,22.1z
	 M86.7,19.7c-0.6-0.7-1.3-1.5-2-2.2l0.7-0.7c0.7,0.7,1.4,1.5,2.1,2.2L86.7,19.7z M14.9,17.6l-0.7-0.7c0.7-0.7,1.4-1.4,2.2-2.1
	l0.7,0.7C16.3,16.1,15.6,16.8,14.9,17.6z M82.6,15.4c-0.7-0.7-1.5-1.3-2.3-1.9l0.6-0.8c0.8,0.6,1.6,1.3,2.3,2L82.6,15.4z M19.3,13.5
	l-0.6-0.8c0.8-0.6,1.6-1.2,2.4-1.8l0.6,0.8C20.9,12.3,20.1,12.9,19.3,13.5z M77.9,11.7c-0.8-0.6-1.7-1.1-2.5-1.6l0.5-0.9
	c0.9,0.5,1.7,1.1,2.6,1.7L77.9,11.7z M24.2,10.2l-0.5-0.9c0.9-0.5,1.8-1,2.7-1.5l0.5,0.9C26,9.2,25.1,9.7,24.2,10.2z M72.8,8.6
	c-0.9-0.5-1.8-0.9-2.7-1.3l0.4-0.9c0.9,0.4,1.8,0.9,2.7,1.3L72.8,8.6z M29.5,7.4l-0.4-0.9C30.1,6.1,31,5.7,32,5.4l0.3,0.9
	C31.4,6.7,30.4,7,29.5,7.4z M67.4,6.1c-0.9-0.4-1.9-0.7-2.8-1l0.3-1c1,0.3,1.9,0.6,2.9,1L67.4,6.1z M35.1,5.4l-0.3-1
	c1-0.3,1.9-0.6,2.9-0.8l0.2,1C37.1,4.8,36.1,5.1,35.1,5.4z M61.7,4.4c-1-0.2-1.9-0.4-2.9-0.6l0.2-1c1,0.2,2,0.4,3,0.6L61.7,4.4z
	 M40.9,4l-0.2-1c1-0.2,2-0.3,3-0.5l0.1,1C42.9,3.6,41.9,3.8,40.9,4z M55.8,3.3c-1-0.1-2-0.2-3-0.3l0.1-1c1,0.1,2,0.1,3,0.3L55.8,3.3
	z M46.9,3.2l-0.1-1c1-0.1,2-0.2,3-0.2l0,1C48.9,3,47.8,3.1,46.9,3.2z"/>
<g>
	<path class="st1" d="M40,36.6c-3.2,0-5.5-2.3-5.5-5.5v-2.4c0-3.2,2.3-5.5,5.5-5.5s5.5,2.3,5.5,5.5v2.4C45.4,34.3,43.2,36.6,40,36.6
		z M40,24.8c-2.4,0-4,1.6-4,4v2.4c0,2.4,1.6,4,4,4c2.4,0,4-1.6,4-4v-2.4C43.9,26.4,42.4,24.8,40,24.8z"/>
	<path class="st1" d="M34.1,60.2c-0.4,0-0.8-0.3-0.8-0.8V47.6c0-0.4,0.3-0.8,0.8-0.8s0.8,0.3,0.8,0.8v11.8
		C34.8,59.8,34.5,60.2,34.1,60.2z"/>
	<path class="st1" d="M45.9,75.5c-0.4,0-0.8-0.3-0.8-0.8V47.6c0-0.4,0.3-0.8,0.8-0.8s0.8,0.3,0.8,0.8v27.1
		C46.6,75.2,46.3,75.5,45.9,75.5z"/>
	<path class="st1" d="M34.1,75.5c-0.4,0-0.8-0.3-0.8-0.8V70c0-0.4,0.3-0.8,0.8-0.8s0.8,0.3,0.8,0.8v4.7
		C34.8,75.2,34.5,75.5,34.1,75.5z"/>
	<path class="st1" d="M41.2,75.5c-0.4,0-0.8-0.3-0.8-0.8V59.4c0-0.4,0.3-0.8,0.8-0.8s0.8,0.3,0.8,0.8v15.3
		C41.9,75.2,41.6,75.5,41.2,75.5z"/>
	<path class="st1" d="M36.5,70.8h-13c-0.4,0-0.8-0.3-0.8-0.8V59.4c0-0.4,0.3-0.8,0.8-0.8h13c0.4,0,0.8,0.3,0.8,0.8V70
		C37.2,70.4,36.9,70.8,36.5,70.8z M24.2,69.3h11.5v-9.1H24.2V69.3z"/>
	<path class="st1" d="M45.9,61.4c-0.4,0-0.8-0.3-0.8-0.8s0.3-0.8,0.8-0.8c2.2,0,4-2.2,4-4v-9.4c0-4.1-2.7-6.3-7.5-6.3h-4.7
		c-4.8,0-7.5,2.2-7.5,6.3v13c0,0.4-0.3,0.8-0.8,0.8s-0.8-0.3-0.8-0.8v-13c0-4.9,3.4-7.8,9-7.8h4.7c5.6,0,9,2.9,9,7.8v9.4
		C51.3,58.7,48.7,61.4,45.9,61.4z"/>
	<path class="st1" d="M56.5,68.4c-0.4,0-0.8-0.3-0.8-0.8V37.8h-4c-0.3,0-0.5-0.1-0.6-0.4s-0.1-0.5,0-0.7l7.5-14.1
		c0.1-0.2,0.4-0.4,0.7-0.4c0.2,0,0.5,0.1,0.7,0.4l7.8,14.1c0.1,0.2,0.1,0.5,0,0.7c-0.1,0.2-0.4,0.4-0.6,0.4h-4v9.9
		c0,0.4-0.3,0.8-0.8,0.8s-0.8-0.3-0.8-0.8V37c0-0.4,0.3-0.8,0.8-0.8h3.4l-6.5-11.8L53,36.3h3.5c0.4,0,0.8,0.3,0.8,0.8v30.6
		C57.2,68.1,56.9,68.4,56.5,68.4z"/>
	<path class="st1" d="M65.9,77.8c-0.4,0-0.8-0.3-0.8-0.8V60.2h-4c-0.3,0-0.5-0.1-0.6-0.4s-0.1-0.5,0-0.7L68,44.9
		c0.1-0.2,0.4-0.4,0.7-0.4c0.2,0,0.5,0.1,0.7,0.4l7.8,14.1c0.1,0.2,0.1,0.5,0,0.7c-0.1,0.2-0.4,0.4-0.6,0.4h-4v6.3
		c0,0.4-0.3,0.8-0.8,0.8S71,66.9,71,66.5v-7.1c0-0.4,0.3-0.8,0.8-0.8h3.4l-6.5-11.8l-6.3,11.8h3.5c0.4,0,0.8,0.3,0.8,0.8v17.7
		C66.7,77.5,66.3,77.8,65.9,77.8z"/>
</g>
</svg>
