<?xml version="1.0" encoding="utf-8"?>
<!-- Generator: Adobe Illustrator 26.0.2, SVG Export Plug-In . SVG Version: 6.00 Build 0)  -->
<svg version="1.1" id="Слой_1" xmlns="http://www.w3.org/2000/svg" xmlns:xlink="http://www.w3.org/1999/xlink" x="0px" y="0px"
	 viewBox="0 0 100 100" style="enable-background:new 0 0 100 100;" xml:space="preserve">
<style type="text/css">
	.st0{fill:#449836;}
	.st1{fill:#439936;}
</style>
<path class="st0" d="M49.8,97.1l0-1c1,0,2,0,3-0.1l0.1,1C51.9,97,50.9,97.1,49.8,97.1z M46.8,96.9c-1-0.1-2-0.2-3-0.3l0.1-1
	c1,0.1,2,0.2,3,0.3L46.8,96.9z M55.9,96.7l-0.1-1c1-0.1,2-0.3,3-0.5l0.2,1C57.9,96.4,56.9,96.6,55.9,96.7z M40.8,96.1
	c-1-0.2-2-0.4-3-0.6l0.2-1c1,0.2,1.9,0.4,2.9,0.6L40.8,96.1z M61.9,95.6l-0.2-1c1-0.2,1.9-0.5,2.9-0.8l0.3,1
	C63.9,95.1,62.9,95.3,61.9,95.6z M34.9,94.7c-1-0.3-1.9-0.6-2.9-1l0.3-0.9c0.9,0.3,1.9,0.7,2.8,0.9L34.9,94.7z M67.7,93.7l-0.4-0.9
	c0.9-0.4,1.9-0.7,2.8-1.2l0.4,0.9C69.6,93,68.7,93.4,67.7,93.7z M29.1,92.6c-0.9-0.4-1.9-0.8-2.8-1.3l0.5-0.9
	c0.9,0.4,1.8,0.9,2.7,1.3L29.1,92.6z M73.2,91.2l-0.5-0.9c0.9-0.5,1.7-1,2.6-1.5l0.5,0.9C75,90.2,74.1,90.7,73.2,91.2z M23.7,89.8
	c-0.9-0.5-1.7-1.1-2.6-1.6l0.6-0.8c0.8,0.6,1.7,1.1,2.5,1.6L23.7,89.8z M78.4,88l-0.6-0.8c0.8-0.6,1.6-1.2,2.4-1.8l0.6,0.8
	C80.1,86.8,79.2,87.4,78.4,88z M18.7,86.4c-0.8-0.6-1.6-1.3-2.3-2l0.7-0.7c0.7,0.7,1.5,1.3,2.3,1.9L18.7,86.4z M83.2,84.2l-0.7-0.7
	c0.7-0.7,1.5-1.4,2.1-2.1l0.7,0.7C84.6,82.8,83.9,83.5,83.2,84.2z M14.2,82.3c-0.7-0.7-1.4-1.5-2-2.3l0.8-0.6c0.6,0.8,1.3,1.5,2,2.2
	L14.2,82.3z M87.4,79.8l-0.8-0.6c0.6-0.8,1.3-1.5,1.9-2.3l0.8,0.6C88.7,78.3,88,79.1,87.4,79.8z M10.2,77.7
	c-0.6-0.8-1.2-1.7-1.7-2.5l0.8-0.5c0.5,0.8,1.1,1.7,1.7,2.5L10.2,77.7z M91,75l-0.8-0.5c0.5-0.8,1.1-1.7,1.6-2.5l0.9,0.5
	C92.1,73.2,91.6,74.1,91,75z M7,72.5c-0.5-0.9-0.9-1.8-1.4-2.7l0.9-0.4c0.4,0.9,0.9,1.8,1.3,2.7L7,72.5z M94.1,69.7l-0.9-0.4
	c0.4-0.9,0.8-1.8,1.2-2.7l0.9,0.4C94.9,67.8,94.5,68.7,94.1,69.7z M4.4,67c-0.4-0.9-0.7-1.9-1-2.9l1-0.3c0.3,0.9,0.6,1.9,1,2.8
	L4.4,67z M96.4,64l-0.9-0.3c0.3-0.9,0.6-1.9,0.9-2.9l1,0.3C97,62.1,96.7,63,96.4,64z M2.5,61.2c-0.2-1-0.5-2-0.6-3l1-0.2
	C3,59,3.3,60,3.5,61L2.5,61.2z M97.9,58.1l-1-0.2c0.2-1,0.4-2,0.5-2.9l1,0.1C98.3,56.1,98.1,57.1,97.9,58.1z M1.4,55.2
	c-0.1-1-0.2-2-0.3-3l1-0.1c0.1,1,0.2,2,0.3,3L1.4,55.2z M98.7,52.1l-1-0.1c0.1-1,0.1-2,0.1-3v-0.2h1V49C98.8,50,98.8,51.1,98.7,52.1
	z M1,49.1L1,49.1c0-1.1,0-2.1,0.1-3l1,0.1C2.1,47.1,2,48.1,2,49L1,49.1z M97.7,45.8c-0.1-1-0.2-2-0.3-3l1-0.1c0.1,1,0.2,2,0.3,3
	L97.7,45.8z M2.4,43.2l-1-0.1c0.1-1,0.3-2,0.5-3l1,0.2C2.7,41.2,2.5,42.2,2.4,43.2z M96.9,39.9c-0.2-1-0.4-1.9-0.7-2.9l1-0.3
	c0.3,1,0.5,2,0.7,3L96.9,39.9z M3.5,37.3l-1-0.2c0.2-1,0.5-2,0.8-2.9l1,0.3C4,35.4,3.7,36.3,3.5,37.3z M95.3,34.2
	c-0.3-0.9-0.7-1.9-1-2.8l0.9-0.4c0.4,0.9,0.7,1.9,1.1,2.8L95.3,34.2z M5.2,31.6l-0.9-0.4c0.4-0.9,0.8-1.9,1.2-2.8l0.9,0.4
	C6,29.8,5.6,30.7,5.2,31.6z M93.1,28.7c-0.4-0.9-0.9-1.8-1.4-2.6l0.9-0.5c0.5,0.9,1,1.8,1.4,2.7L93.1,28.7z M7.7,26.2l-0.9-0.5
	c0.5-0.9,1-1.8,1.5-2.6l0.8,0.5C8.7,24.5,8.2,25.3,7.7,26.2z M90.1,23.5c-0.5-0.8-1.1-1.6-1.7-2.4l0.8-0.6c0.6,0.8,1.2,1.6,1.8,2.5
	L90.1,23.5z M10.9,21.2l-0.8-0.6c0.6-0.8,1.2-1.6,1.9-2.4l0.8,0.6C12.1,19.6,11.5,20.4,10.9,21.2z M86.5,18.7
	c-0.6-0.7-1.3-1.5-2-2.2l0.7-0.7c0.7,0.7,1.4,1.5,2.1,2.2L86.5,18.7z M14.7,16.6L14,15.9c0.7-0.7,1.4-1.4,2.2-2.1l0.7,0.7
	C16.1,15.2,15.4,15.9,14.7,16.6z M82.3,14.5c-0.7-0.7-1.5-1.3-2.3-1.9l0.6-0.8c0.8,0.6,1.6,1.3,2.3,2L82.3,14.5z M19.1,12.6
	l-0.6-0.8c0.8-0.6,1.6-1.2,2.4-1.8l0.6,0.8C20.7,11.4,19.9,12,19.1,12.6z M77.7,10.8c-0.8-0.6-1.7-1.1-2.5-1.6l0.5-0.9
	c0.9,0.5,1.7,1.1,2.6,1.7L77.7,10.8z M24,9.2l-0.5-0.9c0.9-0.5,1.8-1,2.7-1.5l0.5,0.9C25.7,8.2,24.9,8.7,24,9.2z M72.6,7.6
	c-0.9-0.5-1.8-0.9-2.7-1.3l0.4-0.9c0.9,0.4,1.8,0.9,2.7,1.3L72.6,7.6z M29.3,6.5l-0.4-0.9c0.9-0.4,1.9-0.8,2.8-1.1l0.3,0.9
	C31.2,5.7,30.2,6.1,29.3,6.5z M67.1,5.2c-0.9-0.4-1.9-0.7-2.8-1l0.3-1c1,0.3,1.9,0.6,2.9,1L67.1,5.2z M34.9,4.4l-0.3-1
	c1-0.3,2-0.6,2.9-0.8l0.2,1C36.8,3.9,35.9,4.1,34.9,4.4z M61.4,3.4c-1-0.2-1.9-0.4-2.9-0.6l0.2-1c1,0.2,2,0.4,3,0.6L61.4,3.4z
	 M40.7,3l-0.2-1c1-0.2,2-0.3,3-0.5l0.1,1C42.7,2.7,41.7,2.8,40.7,3z M55.6,2.3c-1-0.1-2-0.2-3-0.3l0.1-1c1,0.1,2,0.1,3,0.3L55.6,2.3
	z M46.7,2.2l-0.1-1c1-0.1,2-0.2,3-0.2l0,1C48.6,2,47.6,2.1,46.7,2.2z"/>
<g>
	<path class="st1" d="M39.8,66.2c-0.6,0-1.2-0.1-1.8-0.4L34.7,64c-0.6,0.3-1.6,0.9-2.1,1.2s-1.3,0.7-2.7,0.7h-5
		c-1.2,0-2.2-0.5-2.9-1.5c-0.9-1.2-1.2-2.9-0.8-4.3l2.7-9.1c1-3.9,3-5.4,7.3-5.4h12.5c1.4,0,2.8,0.7,3.7,1.8c1,1.2,1.4,2.7,1.1,4.2
		c-0.3,1.6-1.1,5.1-1.5,6.6c-0.9,3.1-1.5,3.8-1.7,4l-1.9,2.2C42.3,65.6,41.1,66.2,39.8,66.2z M30.7,57.9v0.6c0,1.5,0.6,1.8,2,2.7
		l6,3.4c1.3,0.5,2.4,0.2,3.6-1l1.9-2.2c0.2-0.2,0.7-0.9,1.4-3.5c0.4-1.4,1.2-4.9,1.5-6.5c0.2-1.1-0.1-2.2-0.7-3
		c-0.7-0.8-1.6-1.2-2.6-1.2H31.2c-3.6,0-5,1-5.8,4.3l-2.7,9.1c-0.3,1-0.1,2.2,0.5,3c0.3,0.4,0.9,0.9,1.7,0.9h5c1,0,1.5-0.3,1.9-0.5
		c0.3-0.2,0.9-0.5,1.4-0.8l-1.3-0.7c-1.4-0.8-2.8-1.6-2.8-4v-1.3c0-0.4,0.3-0.8,0.8-0.8h8.2l0.7-2.2c0.1-0.4,0.5-0.6,0.9-0.5
		c0.4,0.1,0.6,0.5,0.5,0.9l-0.8,2.7c-0.1,0.3-0.4,0.5-0.7,0.5H30.7z"/>
	<path class="st1" d="M29.9,57.9c-0.3,0-0.6-0.2-0.7-0.4l-1-2.2c-0.2-0.4,0-0.8,0.4-1c0.4-0.2,0.8,0,1,0.4l1,2.2
		c0.2,0.4,0,0.8-0.4,1C30.1,57.8,30,57.9,29.9,57.9z"/>
	<path class="st1" d="M36.8,43.1c-3.6,0-6.4-3.1-6.4-7v-3.6c0-3.9,2.8-7,6.4-7c3.6,0,6.4,3.1,6.4,7V36C43.2,40,40.4,43.1,36.8,43.1z
		 M36.8,26.9c-2.7,0-4.9,2.4-4.9,5.5V36c0,3.1,2.1,5.5,4.9,5.5c2.7,0,4.9-2.4,4.9-5.5v-3.6C41.7,29.3,39.5,26.9,36.8,26.9z"/>
	<path class="st1" d="M42.4,74c-0.4,0-0.8-0.3-0.8-0.8v-8.7c0-0.4,0.3-0.8,0.8-0.8s0.8,0.3,0.8,0.8v8.7C43.2,73.7,42.8,74,42.4,74z"
		/>
	<path class="st1" d="M26.2,74c-0.4,0-0.8-0.3-0.8-0.8v-8.1c0-0.4,0.3-0.8,0.8-0.8s0.8,0.3,0.8,0.8v8.1C26.9,73.7,26.6,74,26.2,74z"
		/>
	<path class="st1" d="M57.4,74c-0.4,0-0.8-0.3-0.8-0.8v-6c0-0.4,0.3-0.8,0.8-0.8s0.8,0.3,0.8,0.8v6C58.2,73.7,57.8,74,57.4,74z"/>
	<path class="st1" d="M73.7,74c-0.4,0-0.8-0.3-0.8-0.8v-5.4c0-0.4,0.3-0.8,0.8-0.8s0.8,0.3,0.8,0.8v5.4C74.4,73.7,74.1,74,73.7,74z"
		/>
	<path class="st1" d="M63,45.7l-3.1,0c-0.4,0-0.7-0.3-0.7-0.8v-6.6c-0.5,0.2-1,0.4-1.6,0.5c-0.4,0.1-0.8-0.1-0.9-0.5
		c-0.1-0.4,0.1-0.8,0.5-0.9c4.7-1.3,8.3-6.4,8.3-6.4c0.1-0.2,0.4-0.3,0.6-0.3c0.2,0,0.5,0.1,0.6,0.3c0.1,0.1,2.7,3.5,2.7,7.2v0.4
		C69.4,42.7,66.6,45.7,63,45.7z M60.7,44.2l2.4,0c2.7,0,4.9-2.4,4.9-5.5v-0.4c0-2.2-1.1-4.3-1.8-5.4c-1,1.2-2.9,3.3-5.5,4.9V44.2z"
		/>
	<path class="st1" d="M53.7,45.7c-0.4,0-0.8-0.3-0.8-0.8V34.2c0-5.6,4.3-10.2,9.5-10.2c5.2,0,9.5,4.6,9.5,10.2
		c0,0.4-0.3,0.8-0.8,0.8s-0.8-0.3-0.8-0.8c0-4.8-3.6-8.7-8-8.7c-4.4,0-8,3.9-8,8.7V45C54.4,45.4,54.1,45.7,53.7,45.7z"/>
	<path class="st1" d="M59.7,68.9c-1.3,0-2.5-0.6-3.5-1.8L54.3,65c-0.2-0.2-0.8-0.9-1.7-4c-0.4-1.5-1.2-5-1.5-6.6
		c-0.3-1.6,0.1-3.1,1.1-4.2c0.9-1.1,2.3-1.8,3.7-1.8h12.5c4.2,0,6.3,1.5,7.3,5.5l2.7,9c0.4,1.5,0.1,3.1-0.8,4.3
		c-0.7,1-1.8,1.5-2.9,1.5h-5c-1.4,0-2.1-0.4-2.7-0.7c-0.5-0.3-1.6-0.9-2.1-1.2l-3.2,1.8C61,68.8,60.4,68.9,59.7,68.9z M55.9,49.8
		c-1,0-1.9,0.5-2.6,1.2c-0.7,0.8-1,1.9-0.7,3c0.3,1.6,1.1,5,1.5,6.5c0.7,2.5,1.2,3.3,1.4,3.5l1.9,2.2c1.1,1.3,2.3,1.6,3.6,1l5.9-3.3
		c1.4-0.8,2-1.2,2-2.7v-0.6h-8c-0.3,0-0.6-0.2-0.7-0.5l-0.8-2.7c-0.1-0.4,0.1-0.8,0.5-0.9c0.4-0.1,0.8,0.1,0.9,0.5l0.7,2.2h8.2
		c0.4,0,0.8,0.3,0.8,0.8v1.3c0,2.4-1.3,3.2-2.8,4l-1.3,0.7c0.5,0.3,1,0.6,1.4,0.8c0.5,0.3,0.9,0.5,1.9,0.5h5c0.9,0,1.4-0.5,1.7-0.9
		c0.6-0.8,0.8-2,0.5-3l-2.7-9.1c-0.8-3.3-2.2-4.3-5.8-4.3H55.9z"/>
	<path class="st1" d="M69.7,60.5c-0.1,0-0.2,0-0.3-0.1c-0.4-0.2-0.5-0.6-0.4-1l1-2.2c0.2-0.4,0.6-0.5,1-0.4c0.4,0.2,0.5,0.6,0.4,1
		l-1,2.2C70.2,60.4,69.9,60.5,69.7,60.5z"/>
</g>
</svg>
