<?xml version="1.0" encoding="utf-8"?>
<!-- Generator: Adobe Illustrator 26.0.2, SVG Export Plug-In . SVG Version: 6.00 Build 0)  -->
<svg version="1.1" id="Слой_1" xmlns="http://www.w3.org/2000/svg" xmlns:xlink="http://www.w3.org/1999/xlink" x="0px" y="0px"
	 viewBox="0 0 80 80" style="enable-background:new 0 0 80 80;" xml:space="preserve">
<style type="text/css">
	.st0{fill-rule:evenodd;clip-rule:evenodd;fill:#465C80;}
</style>
<path class="st0" d="M0.5,40C0.5,18.2,18.2,0.5,40,0.5S79.5,18.2,79.5,40S61.8,79.5,40,79.5S0.5,61.8,0.5,40z M42.1,53
	c0,0,0.8-0.1,1.1-0.5c0.4-0.4,0.3-1.1,0.3-1.1s0-3.3,1.5-3.8s3.5,3.2,5.6,4.6c1.6,1.1,2.8,0.8,2.8,0.8l5.6-0.1c0,0,2.9-0.2,1.5-2.4
	c-0.1-0.2-0.8-1.7-4.2-4.8c-3.5-3.2-3.1-2.7,1.2-8.3c2.6-3.4,3.6-5.5,3.3-6.3s-2.2-0.6-2.2-0.6h-6.3c0,0-0.5-0.1-0.8,0.1
	s-0.6,0.7-0.6,0.7s-1,2.6-2.3,4.8c-2.8,4.7-3.9,4.9-4.4,4.7c-1.1-0.7-0.8-2.7-0.8-4.2c0-4.6,0.7-6.5-1.4-6.9c-0.7-0.2-1.2-0.3-3-0.3
	c-2.3,0-4.2,0-5.3,0.5c-0.7,0.3-1.3,1.1-0.9,1.2c0.4,0.1,1.4,0.3,1.9,0.9c0.6,0.9,0.6,2.8,0.6,2.8s0.4,5.4-0.9,6
	c-0.9,0.5-2-0.5-4.5-4.7c-1.3-2.2-2.3-4.6-2.3-4.6s-0.2-0.5-0.5-0.7c-0.4-0.3-1-0.4-1-0.4h-6c0,0-0.9,0-1.2,0.4
	c-0.3,0.3,0,1.1,0,1.1S23.6,42.7,29,48.2c4.9,5,10.5,4.7,10.5,4.7L42.1,53L42.1,53z"/>
</svg>
