<?xml version="1.0" encoding="utf-8"?>
<!-- Generator: Adobe Illustrator 26.0.2, SVG Export Plug-In . SVG Version: 6.00 Build 0)  -->
<svg version="1.1" id="Слой_1" xmlns="http://www.w3.org/2000/svg" xmlns:xlink="http://www.w3.org/1999/xlink" x="0px" y="0px"
	 viewBox="0 0 100 100" style="enable-background:new 0 0 100 100;" xml:space="preserve">
<style type="text/css">
	.st0{fill:#449836;}
</style>
<path class="st0" d="M50.1,99l0-1c1,0,2,0,3-0.1l0.1,1C52.2,99,51.2,99,50.1,99z M47.1,98.9c-1-0.1-2-0.2-3-0.3l0.1-1
	c1,0.1,2,0.2,3,0.3L47.1,98.9z M56.2,98.7l-0.1-1c1-0.1,2-0.3,3-0.5l0.2,1C58.2,98.4,57.2,98.5,56.2,98.7z M41.1,98.1
	c-1-0.2-2-0.4-3-0.6l0.2-1c1,0.2,1.9,0.4,2.9,0.6L41.1,98.1z M62.2,97.6l-0.2-1c1-0.2,1.9-0.5,2.9-0.8l0.3,1
	C64.2,97,63.2,97.3,62.2,97.6z M35.2,96.7c-1-0.3-1.9-0.6-2.9-1l0.3-0.9c0.9,0.3,1.9,0.7,2.8,0.9L35.2,96.7z M68,95.7l-0.4-0.9
	c0.9-0.4,1.9-0.7,2.8-1.2l0.4,0.9C69.9,95,69,95.4,68,95.7z M29.4,94.6c-0.9-0.4-1.9-0.8-2.8-1.3l0.5-0.9c0.9,0.4,1.8,0.9,2.7,1.3
	L29.4,94.6z M73.5,93.2l-0.5-0.9c0.9-0.5,1.7-1,2.6-1.5l0.5,0.9C75.3,92.2,74.4,92.7,73.5,93.2z M24,91.8c-0.9-0.5-1.7-1.1-2.6-1.6
	l0.6-0.8c0.8,0.6,1.7,1.1,2.5,1.6L24,91.8z M78.7,90l-0.6-0.8c0.8-0.6,1.6-1.2,2.4-1.8l0.6,0.8C80.4,88.8,79.5,89.4,78.7,90z
	 M19,88.4c-0.8-0.6-1.6-1.3-2.3-2l0.7-0.7c0.7,0.7,1.5,1.3,2.3,1.9L19,88.4z M83.5,86.2l-0.7-0.7c0.7-0.7,1.5-1.4,2.1-2.1l0.7,0.7
	C84.9,84.8,84.2,85.5,83.5,86.2z M14.5,84.3c-0.7-0.7-1.4-1.5-2-2.3l0.8-0.6c0.6,0.8,1.3,1.5,2,2.2L14.5,84.3z M87.7,81.8l-0.8-0.6
	c0.6-0.8,1.3-1.5,1.9-2.3l0.8,0.6C89,80.2,88.3,81,87.7,81.8z M10.5,79.7c-0.6-0.8-1.2-1.7-1.7-2.5l0.8-0.5c0.5,0.8,1.1,1.7,1.7,2.5
	L10.5,79.7z M91.3,76.9l-0.8-0.5c0.5-0.8,1.1-1.7,1.6-2.5l0.9,0.5C92.4,75.2,91.9,76.1,91.3,76.9z M7.3,74.5
	c-0.5-0.9-0.9-1.8-1.4-2.7l0.9-0.4c0.4,0.9,0.9,1.8,1.3,2.7L7.3,74.5z M94.4,71.6l-0.9-0.4c0.4-0.9,0.8-1.8,1.2-2.7l0.9,0.4
	C95.2,69.8,94.8,70.7,94.4,71.6z M4.7,69c-0.4-0.9-0.7-1.9-1-2.9l1-0.3c0.3,0.9,0.6,1.9,1,2.8L4.7,69z M96.7,66l-0.9-0.3
	c0.3-0.9,0.6-1.9,0.9-2.9l1,0.3C97.3,64,97,65,96.7,66z M2.8,63.2c-0.2-1-0.5-2-0.6-3l1-0.2c0.2,1,0.4,2,0.6,2.9L2.8,63.2z
	 M98.2,60.1l-1-0.2c0.2-1,0.4-2,0.5-2.9l1,0.1C98.6,58.1,98.4,59.1,98.2,60.1z M1.7,57.2c-0.1-1-0.2-2-0.3-3l1-0.1
	c0.1,1,0.2,2,0.3,3L1.7,57.2z M99,54.1L98,54c0.1-1,0.1-2,0.1-3v-0.2h1V51C99.1,52,99.1,53.1,99,54.1z M1.3,51.1L1.3,51.1
	c0-1.1,0-2.1,0.1-3l1,0.1c-0.1,1-0.1,1.9-0.1,2.9L1.3,51.1z M98,47.8c-0.1-1-0.2-2-0.3-3l1-0.1c0.1,1,0.2,2,0.3,3L98,47.8z
	 M2.7,45.2l-1-0.1c0.1-1,0.3-2,0.5-3l1,0.2C3,43.2,2.8,44.2,2.7,45.2z M97.2,41.9c-0.2-1-0.4-1.9-0.7-2.9l1-0.3c0.3,1,0.5,2,0.7,3
	L97.2,41.9z M3.8,39.3l-1-0.2c0.2-1,0.5-2,0.8-2.9l1,0.3C4.3,37.4,4,38.3,3.8,39.3z M95.6,36.2c-0.3-0.9-0.7-1.9-1-2.8l0.9-0.4
	c0.4,0.9,0.7,1.9,1.1,2.8L95.6,36.2z M5.5,33.6l-0.9-0.4c0.4-0.9,0.8-1.9,1.2-2.8l0.9,0.4C6.3,31.7,5.9,32.7,5.5,33.6z M93.4,30.7
	c-0.4-0.9-0.9-1.8-1.4-2.6l0.9-0.5c0.5,0.9,1,1.8,1.4,2.7L93.4,30.7z M8,28.2l-0.9-0.5c0.5-0.9,1-1.8,1.5-2.6l0.8,0.5
	C9,26.4,8.5,27.3,8,28.2z M90.4,25.5c-0.5-0.8-1.1-1.6-1.7-2.4l0.8-0.6c0.6,0.8,1.2,1.6,1.8,2.5L90.4,25.5z M11.2,23.1l-0.8-0.6
	c0.6-0.8,1.2-1.6,1.9-2.4l0.8,0.6C12.4,21.6,11.8,22.3,11.2,23.1z M86.8,20.7c-0.6-0.7-1.3-1.5-2-2.2l0.7-0.7
	c0.7,0.7,1.4,1.5,2.1,2.2L86.8,20.7z M15,18.6l-0.7-0.7c0.7-0.7,1.4-1.4,2.2-2.1l0.7,0.7C16.4,17.2,15.7,17.9,15,18.6z M82.6,16.5
	c-0.7-0.7-1.5-1.3-2.3-1.9l0.6-0.8c0.8,0.6,1.6,1.3,2.3,2L82.6,16.5z M19.4,14.6l-0.6-0.8c0.8-0.6,1.6-1.2,2.4-1.8l0.6,0.8
	C21,13.3,20.2,13.9,19.4,14.6z M78,12.7c-0.8-0.6-1.7-1.1-2.5-1.6l0.5-0.9c0.9,0.5,1.7,1.1,2.6,1.7L78,12.7z M24.3,11.2l-0.5-0.9
	c0.9-0.5,1.8-1,2.7-1.5l0.5,0.9C26,10.2,25.2,10.7,24.3,11.2z M72.9,9.6c-0.9-0.5-1.8-0.9-2.7-1.3l0.4-0.9c0.9,0.4,1.8,0.9,2.7,1.3
	L72.9,9.6z M29.6,8.4l-0.4-0.9c0.9-0.4,1.9-0.8,2.8-1.1l0.3,0.9C31.5,7.7,30.5,8.1,29.6,8.4z M67.4,7.2c-0.9-0.4-1.9-0.7-2.8-1
	l0.3-1c1,0.3,1.9,0.6,2.9,1L67.4,7.2z M35.2,6.4l-0.3-1c1-0.3,2-0.6,2.9-0.8l0.2,1C37.1,5.8,36.2,6.1,35.2,6.4z M61.7,5.4
	c-1-0.2-1.9-0.4-2.9-0.6l0.2-1c1,0.2,2,0.4,3,0.6L61.7,5.4z M41,5l-0.2-1c1-0.2,2-0.3,3-0.5l0.1,1C43,4.6,42,4.8,41,5z M55.9,4.3
	c-1-0.1-2-0.2-3-0.3l0.1-1c1,0.1,2,0.1,3,0.3L55.9,4.3z M47,4.2l-0.1-1c1-0.1,2-0.2,3-0.2l0,1C48.9,4,47.9,4.1,47,4.2z"/>
<g>
	<path class="st0" d="M25.1,38.6c0.2-0.1,0.5-0.3,0.7-0.3c0,0,0.1,0,0.1,0c0.5-0.1,1-0.2,1.5-0.1l19.4,4c1,0.2,2.5,0,3.5-0.5
		l15.9-8.8c0.8-0.4,0.8-1,0.8-1.2c0-0.3-0.3-0.8-1.2-0.9L46,27.5c-0.7-0.1-1.8,0-2.4,0.4L25.4,37c-0.4,0.1-0.7,0.3-1,0.5
		c-1,0.6-1.7,1.6-1.9,2.8c-0.2,1.1,0,2.3,0.6,3.3c0.4,0.6,0.9,1,1.4,1.4c0,0-0.1,0.1-0.1,0.1c-1,0.6-1.7,1.6-1.9,2.8
		c-0.2,1.1,0,2.3,0.6,3.3c0.4,0.6,0.9,1,1.4,1.4c0,0-0.1,0.1-0.1,0.1c-1,0.6-1.7,1.6-1.9,2.8c-0.2,1.1,0,2.3,0.6,3.3
		c0.6,1,1.6,1.7,2.8,1.9l20.6,4.2c0.3,0.1,0.7,0.1,1,0.1c0.8,0,1.5-0.2,2.3-0.5l7.6-4.2c0.3-0.2,0.5-0.6,0.3-0.9
		c-0.2-0.3-0.6-0.5-0.9-0.3L49.1,63c-0.8,0.4-1.6,0.5-2.4,0.3l-20.6-4.2c-0.8-0.2-1.5-0.6-1.9-1.3c-0.4-0.7-0.6-1.5-0.4-2.3
		c0.2-0.8,0.6-1.5,1.3-1.9c0.6-0.4,1.2-0.5,1.9-0.5c0,0,8.2,1.7,8.2,1.7c0.3,0,0.6-0.2,0.7-0.6c0.1-0.4-0.2-0.7-0.5-0.8l-9.2-1.9
		c-0.8-0.2-1.5-0.6-1.9-1.3c-0.4-0.7-0.6-1.5-0.4-2.3c0.2-0.8,0.6-1.5,1.3-1.9c0.6-0.4,1.2-0.5,1.9-0.5l19.5,4
		c0.3,0.1,0.7,0.1,1,0.1c0.8,0,1.5-0.2,2.3-0.5L67,39.6c0.3-0.2,0.5-0.6,0.3-0.9c-0.2-0.3-0.6-0.5-0.9-0.3L49.1,48
		c-0.8,0.4-1.6,0.5-2.4,0.3l-20.6-4.2c-0.8-0.2-1.5-0.6-1.9-1.3c-0.4-0.7-0.6-1.5-0.4-2.3C24,39.7,24.5,39.1,25.1,38.6z M44.2,29.1
		c0.4-0.2,1.2-0.3,1.6-0.2L64.9,32l-15.3,8.5c-0.6,0.3-1.8,0.5-2.5,0.4L28.4,37L44.2,29.1z"/>
	<path class="st0" d="M54,52.8l-4.9,2.7c-0.8,0.4-1.6,0.5-2.4,0.3l-1.8-0.4c-0.4-0.1-0.7,0.2-0.8,0.5c-0.1,0.4,0.2,0.7,0.5,0.8
		l1.8,0.4c0.3,0.1,0.7,0.1,1,0.1c0.8,0,1.5-0.2,2.3-0.5l5-2.8c0.3-0.2,0.5-0.6,0.3-0.9C54.8,52.7,54.4,52.6,54,52.8z"/>
	<path class="st0" d="M66.4,45.9l-5.6,3.1c-0.3,0.2-0.5,0.6-0.3,0.9c0.1,0.2,0.4,0.4,0.6,0.4c0.1,0,0.2,0,0.3-0.1l5.6-3.1
		c0.3-0.2,0.5-0.6,0.3-0.9C67.1,45.9,66.7,45.8,66.4,45.9z"/>
	<path class="st0" d="M38.1,51c-0.1,0-0.1,0-0.2,0c-0.5,0-1,0.4-1,1v6.2c0,0.3,0.1,0.5,0.2,0.7c0.3,0.3,0.8,0.4,1.2,0.2l1.2-0.6
		c0.1,0,0.1,0,0.1,0c0,0,0.1,0,0.3,0.2l1.6,1.3c0.3,0.2,0.5,0.2,0.7,0.2c0.4,0,0.9-0.3,0.9-1v-6.2c0-0.5-0.4-1-0.9-1.1L38.1,51z
		 M41.8,58.2l-0.9-0.7c-0.4-0.3-0.8-0.5-1.2-0.5c-0.3,0-0.6,0.1-0.7,0.2l-0.7,0.4v-5.2l3.5,0.7V58.2z"/>
	<path class="st0" d="M45.4,32.5l9.2,1.5c0,0,0.1,0,0.1,0c0.3,0,0.6-0.2,0.7-0.6c0.1-0.4-0.2-0.7-0.6-0.8l-9.2-1.5
		c-0.4-0.1-0.7,0.2-0.8,0.6C44.8,32.1,45.1,32.4,45.4,32.5z"/>
	<path class="st0" d="M50.2,36.4c0.3,0,0.6-0.2,0.7-0.6c0.1-0.4-0.2-0.7-0.6-0.8l-9.2-1.5c-0.4-0.1-0.7,0.2-0.8,0.6
		c-0.1,0.4,0.2,0.7,0.6,0.8l9.2,1.5C50.1,36.4,50.1,36.4,50.2,36.4z"/>
	<path class="st0" d="M77.8,68.4L77.2,67c-0.2-0.5-0.4-1.7-0.5-2.9c-0.2-1.6-0.4-3.3-0.9-4.4L74.5,57c-0.6-1.3-2.1-2.3-3.5-1.6
		c-0.4,0.2-0.7,0.4-0.9,0.7c-0.7-0.9-1.9-1.3-3-0.8c-0.4,0.2-0.7,0.4-0.9,0.8c-0.3-0.3-0.6-0.6-1-0.7c-0.6-0.2-1.3-0.2-1.9,0.1
		c-0.3,0.2-0.6,0.4-0.9,0.7l-1.7-3.6c-0.6-1.4-2-1.9-3.2-1.4c-0.6,0.3-1.1,0.8-1.3,1.5c-0.2,0.6-0.1,1.3,0.2,1.9l4.1,8.8
		c-2.7-0.7-4.1,0-4.5,0.4c-0.6,0.5-0.8,1.1-0.6,1.8c0.2,0.7,0.7,1.2,1.4,1.3c2.4,0.6,3.4,1.4,5.2,3.4c1.3,1.4,3.1,1.9,4.3,2.1
		c0.3,0,0.8,0.3,0.9,0.6l0.4,0.8c0.2,0.4,0.6,0.7,1.2,0.8c0.1,0,0.2,0,0.3,0c0.4,0,0.8-0.1,1.2-0.3l6.5-3
		C77.9,70.8,78.3,69.5,77.8,68.4z M76.2,70l-6.5,3c-0.4,0.2-0.7,0.2-0.8,0.1l-0.4-0.8c-0.4-0.8-1.2-1.3-1.9-1.4
		c-0.9-0.1-2.4-0.5-3.5-1.7c-1.9-2.1-3.2-3.1-5.9-3.8c-0.2-0.1-0.4-0.2-0.4-0.3c0-0.1,0-0.3,0.2-0.4c0.6-0.5,2.1-0.7,4.7,0.4
		c0.3,0.1,0.6,0,0.8-0.2c0.2-0.2,0.2-0.5,0.1-0.8l-4.8-10.3c-0.2-0.3-0.2-0.7-0.1-0.9c0.1-0.3,0.2-0.4,0.5-0.6
		c0.8-0.4,1.3,0.5,1.4,0.7l3.8,8.1c0.1,0.3,0.4,0.4,0.6,0.4c0.1,0,0.2,0,0.3-0.1c0.3-0.2,0.5-0.6,0.3-0.9l-1.2-2.5
		c-0.1-0.3-0.1-0.5,0-0.8c0.1-0.3,0.3-0.5,0.6-0.6c0.3-0.1,0.5-0.1,0.8,0c0.3,0.1,0.5,0.3,0.6,0.6l0.8,1.7c0.1,0.3,0.4,0.4,0.6,0.4
		c0.1,0,0.2,0,0.3-0.1c0.3-0.2,0.5-0.6,0.3-0.9c0,0-0.1-0.3-0.1-0.3c-0.1-0.3-0.1-0.5,0-0.8c0.1-0.3,0.3-0.5,0.6-0.6
		c0.5-0.2,1.2,0,1.4,0.5c0,0,0.7,1.5,0.7,1.6c0.2,0.3,0.6,0.5,0.9,0.3c0.3-0.2,0.5-0.6,0.3-0.9c-0.1-0.3-0.1-0.6,0-0.8
		c0.1-0.3,0.3-0.5,0.5-0.6c0.7-0.3,1.4,0.4,1.6,1l1.2,2.7c0.4,0.9,0.6,2.6,0.8,4c0.2,1.4,0.3,2.6,0.6,3.3l0.6,1.4
		C76.8,69.4,76.6,69.9,76.2,70z"/>
</g>
</svg>
