<?xml version="1.0" encoding="utf-8"?>
<!-- Generator: Adobe Illustrator 26.0.2, SVG Export Plug-In . SVG Version: 6.00 Build 0)  -->
<svg version="1.1" id="Слой_1" xmlns="http://www.w3.org/2000/svg" xmlns:xlink="http://www.w3.org/1999/xlink" x="0px" y="0px"
	 viewBox="0 0 100 100" style="enable-background:new 0 0 100 100;" xml:space="preserve">
<style type="text/css">
	.st0{fill:#449836;}
	.st1{fill:#439936;}
</style>
<path class="st0" d="M50.7,99.6v-1c1,0,2,0,3-0.1l0.1,1C52.8,99.5,51.8,99.6,50.7,99.6z M47.7,99.4c-1-0.1-2-0.2-3-0.3l0.1-1
	c1,0.1,2,0.2,3,0.3L47.7,99.4z M56.8,99.2l-0.1-1c1-0.1,2-0.3,3-0.5l0.2,1C58.8,98.9,57.8,99.1,56.8,99.2z M41.7,98.6
	c-1-0.2-2-0.4-3-0.6l0.2-1c1,0.2,1.9,0.4,2.9,0.6L41.7,98.6z M62.8,98.1l-0.2-1c1-0.2,1.9-0.5,2.9-0.8l0.3,1
	C64.8,97.6,63.8,97.8,62.8,98.1z M35.8,97.2c-1-0.3-1.9-0.6-2.9-1l0.3-0.9c0.9,0.3,1.9,0.7,2.8,0.9L35.8,97.2z M68.6,96.3l-0.4-0.9
	c0.9-0.4,1.9-0.7,2.8-1.2l0.4,0.9C70.5,95.5,69.6,95.9,68.6,96.3z M30,95.1c-0.9-0.4-1.9-0.8-2.8-1.3l0.5-0.9
	c0.9,0.4,1.8,0.9,2.7,1.3L30,95.1z M74.1,93.7l-0.5-0.9c0.9-0.5,1.7-1,2.6-1.5l0.5,0.9C75.9,92.7,75,93.2,74.1,93.7z M24.6,92.4
	c-0.9-0.5-1.7-1.1-2.6-1.6l0.6-0.8c0.8,0.6,1.7,1.1,2.5,1.6L24.6,92.4z M79.3,90.5l-0.6-0.8c0.8-0.6,1.6-1.2,2.4-1.8l0.6,0.8
	C81,89.3,80.1,89.9,79.3,90.5z M19.6,88.9c-0.8-0.6-1.6-1.3-2.3-2l0.7-0.7c0.7,0.7,1.5,1.3,2.3,1.9L19.6,88.9z M84.1,86.7L83.4,86
	c0.7-0.7,1.5-1.4,2.1-2.1l0.7,0.7C85.5,85.3,84.8,86,84.1,86.7z M15.1,84.8c-0.7-0.7-1.4-1.5-2-2.3l0.8-0.6c0.6,0.8,1.3,1.5,2,2.2
	L15.1,84.8z M88.3,82.3l-0.8-0.6c0.6-0.8,1.3-1.5,1.9-2.3l0.8,0.6C89.6,80.8,88.9,81.6,88.3,82.3z M11.1,80.2
	c-0.6-0.8-1.2-1.7-1.7-2.5l0.8-0.5c0.5,0.8,1.1,1.7,1.7,2.5L11.1,80.2z M91.9,77.5L91.1,77c0.5-0.8,1.1-1.7,1.6-2.5l0.9,0.5
	C93,75.7,92.5,76.6,91.9,77.5z M7.9,75c-0.5-0.9-0.9-1.8-1.4-2.7l0.9-0.4c0.4,0.9,0.9,1.8,1.3,2.7L7.9,75z M94.9,72.2L94,71.8
	c0.4-0.9,0.8-1.8,1.2-2.7l0.9,0.4C95.8,70.3,95.4,71.3,94.9,72.2z M5.3,69.5c-0.4-0.9-0.7-1.9-1-2.9l1-0.3c0.3,0.9,0.6,1.9,1,2.8
	L5.3,69.5z M97.3,66.5l-0.9-0.3c0.3-0.9,0.6-1.9,0.9-2.9l1,0.3C97.9,64.6,97.6,65.6,97.3,66.5z M3.4,63.7c-0.2-1-0.5-2-0.6-3l1-0.2
	c0.2,1,0.4,2,0.6,2.9L3.4,63.7z M98.8,60.6l-1-0.2c0.2-1,0.4-2,0.5-2.9l1,0.1C99.2,58.6,99,59.6,98.8,60.6z M2.3,57.7
	c-0.1-1-0.2-2-0.3-3l1-0.1c0.1,1,0.2,2,0.3,3L2.3,57.7z M99.6,54.6l-1-0.1c0.1-1,0.1-2,0.1-3v-0.2h1v0.2
	C99.7,52.6,99.7,53.6,99.6,54.6z M2.9,51.6h-1v-0.1c0-1,0-2,0.1-2.9l1,0.1C2.9,49.7,2.9,50.6,2.9,51.6L2.9,51.6z M98.6,48.3
	c-0.1-1-0.2-2-0.3-3l1-0.1c0.1,1,0.2,2,0.3,3L98.6,48.3z M3.3,45.7l-1-0.1c0.1-1,0.3-2,0.5-3l1,0.2C3.6,43.7,3.4,44.7,3.3,45.7z
	 M97.8,42.4c-0.2-1-0.4-1.9-0.7-2.9l1-0.3c0.3,1,0.5,2,0.7,3L97.8,42.4z M4.4,39.8l-1-0.2c0.2-1,0.5-2,0.8-2.9l1,0.3
	C4.9,37.9,4.6,38.8,4.4,39.8z M96.2,36.7c-0.3-0.9-0.7-1.9-1-2.8l0.9-0.4c0.4,0.9,0.7,1.9,1.1,2.8L96.2,36.7z M6.1,34.1l-0.9-0.4
	C5.6,32.8,6,31.9,6.4,31l0.9,0.4C6.9,32.3,6.5,33.2,6.1,34.1z M94,31.2c-0.4-0.9-0.9-1.8-1.4-2.6l0.9-0.5c0.5,0.9,1,1.8,1.4,2.7
	L94,31.2z M8.6,28.7l-0.9-0.5c0.5-0.9,1-1.8,1.5-2.6l0.8,0.5C9.6,27,9.1,27.8,8.6,28.7z M91,26c-0.5-0.8-1.1-1.6-1.7-2.4l0.8-0.6
	c0.6,0.8,1.2,1.6,1.8,2.5L91,26z M11.8,23.7L11,23.1c0.6-0.8,1.2-1.6,1.9-2.4l0.8,0.6C13,22.1,12.4,22.9,11.8,23.7z M87.4,21.3
	c-0.6-0.7-1.3-1.5-2-2.2l0.7-0.7c0.7,0.7,1.4,1.5,2.1,2.2L87.4,21.3z M15.6,19.1l-0.7-0.7c0.7-0.7,1.4-1.4,2.2-2.1l0.7,0.7
	C17,17.7,16.3,18.4,15.6,19.1z M83.2,17c-0.7-0.7-1.5-1.3-2.3-1.9l0.6-0.8c0.8,0.6,1.6,1.3,2.3,2L83.2,17z M20,15.1l-0.6-0.8
	c0.8-0.6,1.6-1.2,2.4-1.8l0.6,0.8C21.6,13.9,20.8,14.5,20,15.1z M78.6,13.3c-0.8-0.6-1.7-1.1-2.5-1.6l0.5-0.9
	c0.9,0.5,1.7,1.1,2.6,1.7L78.6,13.3z M24.9,11.7l-0.5-0.9c0.9-0.5,1.8-1,2.7-1.5l0.5,0.9C26.6,10.7,25.8,11.2,24.9,11.7z M73.5,10.1
	c-0.9-0.5-1.8-0.9-2.7-1.3l0.4-0.9c0.9,0.4,1.8,0.9,2.7,1.3L73.5,10.1z M30.2,9l-0.4-0.9c0.9-0.4,1.9-0.8,2.8-1.1L33,7.9
	C32.1,8.2,31.1,8.6,30.2,9z M68,7.7c-0.9-0.4-1.9-0.7-2.8-1l0.3-1c1,0.3,1.9,0.6,2.9,1L68,7.7z M35.8,6.9l-0.3-1
	c1-0.3,2-0.6,2.9-0.8l0.2,1C37.7,6.4,36.8,6.6,35.8,6.9z M62.3,5.9c-1-0.2-1.9-0.4-2.9-0.6l0.2-1c1,0.2,2,0.4,3,0.6L62.3,5.9z
	 M41.6,5.5l-0.2-1c1-0.2,2-0.3,3-0.5l0.1,1C43.6,5.2,42.6,5.3,41.6,5.5z M56.5,4.8c-1-0.1-2-0.2-3-0.3l0.1-1c1,0.1,2,0.1,3,0.3
	L56.5,4.8z M47.6,4.7l-0.1-1c1-0.1,2-0.2,3-0.2v1C49.5,4.6,48.5,4.6,47.6,4.7z"/>
<g>
	<path class="st1" d="M63.6,57.7c-0.6,0-1.1-0.3-1.5-0.7l-6.5-7.3h-7.4c-0.4,0-0.8-0.3-0.8-0.8s0.3-0.8,0.8-0.8H56
		c0.2,0,0.4,0.1,0.6,0.3l6.8,7.6c0.2,0.3,0.5,0.2,0.6,0.2s0.4-0.2,0.4-0.6v-6.7c0-0.4,0.3-0.8,0.8-0.8h12.9c1,0,1.8-0.9,1.8-1.9V26
		c0-1.1-0.8-1.9-1.8-1.9h-31c-1,0-1.8,0.9-1.8,1.9v13.4c0,0.4-0.3,0.8-0.8,0.8s-0.8-0.3-0.8-0.8V26c0-1.9,1.5-3.4,3.3-3.4h31
		c1.8,0,3.3,1.5,3.3,3.4v20.1c0,1.9-1.5,3.4-3.3,3.4H65.7v6c0,0.9-0.5,1.7-1.4,2C64.1,57.6,63.8,57.7,63.6,57.7z"/>
	<path class="st1" d="M26.1,63c-3,0-5.9-3-5.9-6.1v-9.4c0-5.3,8.1-7.5,12.4-7.5c0.4,0,0.8,0.3,0.8,0.8s-0.3,0.8-0.8,0.8
		c-4.5,0-10.9,2.3-10.9,6V57c0,2.1,2,4.6,4.4,4.6c0.4,0,0.8,0.3,0.8,0.8S26.5,63,26.1,63z"/>
	<path class="st1" d="M39,63c-0.4,0-0.8-0.3-0.8-0.8s0.3-0.8,0.8-0.8c2.4,0,4.4-2.5,4.4-4.6v-9.4c0-3.7-6.3-6-10.9-6
		c-0.4,0-0.8-0.3-0.8-0.8s0.3-0.8,0.8-0.8c4.3,0,12.4,2.2,12.4,7.5v9.4C45,60.1,42.1,63,39,63z"/>
	<path class="st1" d="M26.1,80.5c-0.4,0-0.8-0.3-0.8-0.8V48.9c0-0.4,0.3-0.8,0.8-0.8s0.8,0.3,0.8,0.8v30.9
		C26.9,80.1,26.5,80.5,26.1,80.5z"/>
	<path class="st1" d="M39,80.5c-0.4,0-0.8-0.3-0.8-0.8V48.9c0-0.4,0.3-0.8,0.8-0.8s0.8,0.3,0.8,0.8v30.9
		C39.8,80.1,39.5,80.5,39,80.5z"/>
	<path class="st1" d="M32.6,80.5c-0.4,0-0.8-0.3-0.8-0.8V60.9c0-0.4,0.3-0.8,0.8-0.8s0.8,0.3,0.8,0.8v18.8
		C33.3,80.1,33,80.5,32.6,80.5z"/>
	<path class="st1" d="M32.6,37.5c-3.4,0-5.9-2.6-5.9-6.1v-2.7c0-3.5,2.5-6.1,5.9-6.1s5.9,2.6,5.9,6.1v2.7
		C38.5,34.9,36,37.5,32.6,37.5z M32.6,24.1c-2.6,0-4.4,1.9-4.4,4.6v2.7c0,2.7,1.8,4.6,4.4,4.6s4.4-1.9,4.4-4.6v-2.7
		C37,26,35.2,24.1,32.6,24.1z"/>
	<path class="st1" d="M74,65.7c-2.6,0-4.6-2.4-4.6-5.4v-1.5c0-3,2-5.4,4.6-5.4s4.6,2.4,4.6,5.4v1.5C78.6,63.4,76.6,65.7,74,65.7z
		 M74,55c-1.8,0-3.1,1.7-3.1,3.9v1.5c0,2.2,1.4,3.9,3.1,3.9c1.8,0,3.1-1.7,3.1-3.9v-1.5C77.1,56.7,75.7,55,74,55z"/>
	<path class="st1" d="M80.4,71.1c-0.4,0-0.8-0.3-0.8-0.8V69c0-2-3.7-3.3-5.7-3.3S68.2,67,68.2,69v1.3c0,0.4-0.3,0.8-0.8,0.8
		s-0.8-0.3-0.8-0.8V69c0-3.2,4.6-4.8,7.2-4.8S81,65.8,81,69v1.3C81.2,70.7,80.8,71.1,80.4,71.1z"/>
	<path class="st1" d="M58.4,73.8c-2.6,0-4.6-2.4-4.6-5.4v-1.5c0-3,2-5.4,4.6-5.4s4.6,2.4,4.6,5.4v1.5C63.1,71.4,61,73.8,58.4,73.8z
		 M58.4,63c-1.8,0-3.1,1.7-3.1,3.9v1.5c0,2.2,1.4,3.9,3.1,3.9c1.8,0,3.1-1.7,3.1-3.9v-1.5C61.6,64.7,60.2,63,58.4,63z"/>
	<path class="st1" d="M64.9,79.1c-0.4,0-0.8-0.3-0.8-0.8V77c0-2-3.7-3.3-5.7-3.3S52.7,75,52.7,77v1.3c0,0.4-0.3,0.8-0.8,0.8
		s-0.8-0.3-0.8-0.8V77c0-3.2,4.6-4.8,7.2-4.8c2.6,0,7.2,1.6,7.2,4.8v1.3C65.7,78.8,65.3,79.1,64.9,79.1z"/>
	<path class="st1" d="M70.1,36.2h-2.6c-0.4,0-0.8-0.3-0.8-0.8s0.3-0.8,0.8-0.8h2.6c0.4,0,0.8,0.3,0.8,0.8S70.5,36.2,70.1,36.2z"/>
	<path class="st1" d="M63.6,36.2H61c-0.4,0-0.8-0.3-0.8-0.8s0.3-0.8,0.8-0.8h2.6c0.4,0,0.8,0.3,0.8,0.8S64,36.2,63.6,36.2z"/>
	<path class="st1" d="M57.1,36.2h-2.6c-0.4,0-0.8-0.3-0.8-0.8s0.3-0.8,0.8-0.8h2.6c0.4,0,0.8,0.3,0.8,0.8S57.6,36.2,57.1,36.2z"/>
</g>
</svg>
