<?xml version="1.0" encoding="utf-8"?>
<!-- Generator: Adobe Illustrator 26.0.2, SVG Export Plug-In . SVG Version: 6.00 Build 0)  -->
<svg version="1.1" id="Слой_1" xmlns="http://www.w3.org/2000/svg" xmlns:xlink="http://www.w3.org/1999/xlink" x="0px" y="0px"
	 viewBox="0 0 100 100" style="enable-background:new 0 0 100 100;" xml:space="preserve">
<style type="text/css">
	.st0{fill:#449836;}
	.st1{fill:#439936;}
</style>
<path class="st0" d="M49.6,98l0-1c1,0,2,0,3-0.1l0.1,1C51.7,98,50.6,98,49.6,98z M46.6,97.8c-1-0.1-2-0.2-3-0.3l0.1-1
	c1,0.1,2,0.2,3,0.3L46.6,97.8z M55.7,97.7l-0.1-1c1-0.1,2-0.3,3-0.5l0.2,1C57.7,97.4,56.7,97.5,55.7,97.7z M40.5,97.1
	c-1-0.2-2-0.4-3-0.6l0.2-1c1,0.2,1.9,0.4,2.9,0.6L40.5,97.1z M61.7,96.5l-0.2-1c1-0.2,1.9-0.5,2.9-0.8l0.3,1
	C63.6,96,62.7,96.3,61.7,96.5z M34.6,95.6c-1-0.3-1.9-0.6-2.9-1l0.3-0.9c0.9,0.3,1.9,0.7,2.8,0.9L34.6,95.6z M67.5,94.7l-0.4-0.9
	c0.9-0.4,1.9-0.7,2.8-1.2l0.4,0.9C69.4,94,68.4,94.4,67.5,94.7z M28.9,93.6c-0.9-0.4-1.9-0.8-2.8-1.3l0.5-0.9
	c0.9,0.4,1.8,0.9,2.7,1.3L28.9,93.6z M73,92.2l-0.5-0.9c0.9-0.5,1.7-1,2.6-1.5l0.5,0.9C74.8,91.2,73.9,91.7,73,92.2z M23.5,90.8
	c-0.9-0.5-1.7-1.1-2.6-1.6l0.6-0.8c0.8,0.6,1.7,1.1,2.5,1.6L23.5,90.8z M78.2,89l-0.6-0.8c0.8-0.6,1.6-1.2,2.4-1.8l0.6,0.8
	C79.8,87.8,79,88.4,78.2,89z M18.5,87.4c-0.8-0.6-1.6-1.3-2.3-2l0.7-0.7c0.7,0.7,1.5,1.3,2.3,1.9L18.5,87.4z M82.9,85.2l-0.7-0.7
	c0.7-0.7,1.5-1.4,2.1-2.1l0.7,0.7C84.4,83.8,83.7,84.5,82.9,85.2z M13.9,83.3c-0.7-0.7-1.4-1.5-2-2.3l0.8-0.6c0.6,0.8,1.3,1.5,2,2.2
	L13.9,83.3z M87.2,80.8l-0.8-0.6c0.6-0.8,1.3-1.5,1.9-2.3l0.8,0.6C88.5,79.2,87.8,80,87.2,80.8z M10,78.6c-0.6-0.8-1.2-1.7-1.7-2.5
	l0.8-0.5c0.5,0.8,1.1,1.7,1.7,2.5L10,78.6z M90.8,75.9L90,75.4c0.5-0.8,1.1-1.7,1.6-2.5l0.9,0.5C91.9,74.2,91.4,75.1,90.8,75.9z
	 M6.7,73.5c-0.5-0.9-0.9-1.8-1.4-2.7l0.9-0.4c0.4,0.9,0.9,1.8,1.3,2.7L6.7,73.5z M93.8,70.6l-0.9-0.4c0.4-0.9,0.8-1.8,1.2-2.7
	l0.9,0.4C94.7,68.8,94.3,69.7,93.8,70.6z M4.2,68c-0.4-0.9-0.7-1.9-1-2.9l1-0.3c0.3,0.9,0.6,1.9,1,2.8L4.2,68z M96.1,65l-0.9-0.3
	c0.3-0.9,0.6-1.9,0.9-2.9l1,0.3C96.7,63,96.5,64,96.1,65z M2.3,62.2c-0.2-1-0.5-2-0.6-3l1-0.2c0.2,1,0.4,2,0.6,2.9L2.3,62.2z
	 M97.7,59.1l-1-0.2c0.2-1,0.4-2,0.5-2.9l1,0.1C98,57.1,97.9,58.1,97.7,59.1z M1.2,56.2c-0.1-1-0.2-2-0.3-3l1-0.1c0.1,1,0.2,2,0.3,3
	L1.2,56.2z M98.5,53l-1-0.1c0.1-1,0.1-2,0.1-3l0-0.2h1l0,0.2C98.6,51,98.5,52,98.5,53z M0.8,50.1L0.8,50.1c0-1.1,0-2.1,0.1-3l1,0.1
	c-0.1,1-0.1,1.9-0.1,2.9L0.8,50.1z M97.5,46.8c-0.1-1-0.2-2-0.3-3l1-0.1c0.1,1,0.2,2,0.3,3L97.5,46.8z M2.2,44.1l-1-0.1
	c0.1-1,0.3-2,0.5-3l1,0.2C2.4,42.2,2.3,43.2,2.2,44.1z M96.7,40.9c-0.2-1-0.4-1.9-0.7-2.9l1-0.3c0.3,1,0.5,2,0.7,3L96.7,40.9z
	 M3.2,38.3l-1-0.2c0.2-1,0.5-2,0.8-2.9l1,0.3C3.7,36.3,3.5,37.3,3.2,38.3z M95.1,35.1c-0.3-0.9-0.7-1.9-1-2.8L95,32
	c0.4,0.9,0.7,1.9,1.1,2.8L95.1,35.1z M5,32.6l-0.9-0.4c0.4-0.9,0.8-1.9,1.2-2.8l0.9,0.4C5.8,30.7,5.4,31.7,5,32.6z M92.8,29.6
	c-0.4-0.9-0.9-1.8-1.4-2.6l0.9-0.5c0.5,0.9,1,1.8,1.4,2.7L92.8,29.6z M7.5,27.2l-0.9-0.5c0.5-0.9,1-1.8,1.5-2.6L9,24.6
	C8.5,25.4,8,26.3,7.5,27.2z M89.9,24.5c-0.5-0.8-1.1-1.6-1.7-2.4l0.8-0.6c0.6,0.8,1.2,1.6,1.8,2.5L89.9,24.5z M10.7,22.1l-0.8-0.6
	c0.6-0.8,1.2-1.6,1.9-2.4l0.8,0.6C11.9,20.5,11.3,21.3,10.7,22.1z M86.3,19.7c-0.6-0.7-1.3-1.5-2-2.2l0.7-0.7
	c0.7,0.7,1.4,1.5,2.1,2.2L86.3,19.7z M14.5,17.6l-0.7-0.7c0.7-0.7,1.4-1.4,2.2-2.1l0.7,0.7C15.9,16.1,15.2,16.8,14.5,17.6z
	 M82.1,15.4c-0.7-0.7-1.5-1.3-2.3-1.9l0.6-0.8c0.8,0.6,1.6,1.3,2.3,2L82.1,15.4z M18.9,13.5l-0.6-0.8c0.8-0.6,1.6-1.2,2.4-1.8
	l0.6,0.8C20.5,12.3,19.7,12.9,18.9,13.5z M77.5,11.7c-0.8-0.6-1.7-1.1-2.5-1.6l0.5-0.9c0.9,0.5,1.7,1.1,2.6,1.7L77.5,11.7z
	 M23.8,10.2l-0.5-0.9c0.9-0.5,1.8-1,2.7-1.5l0.5,0.9C25.5,9.2,24.6,9.7,23.8,10.2z M72.4,8.6c-0.9-0.5-1.8-0.9-2.7-1.3l0.4-0.9
	c0.9,0.4,1.8,0.9,2.7,1.3L72.4,8.6z M29.1,7.4l-0.4-0.9c0.9-0.4,1.9-0.8,2.8-1.1l0.3,0.9C30.9,6.7,30,7,29.1,7.4z M66.9,6.1
	c-0.9-0.4-1.9-0.7-2.8-1l0.3-1c1,0.3,1.9,0.6,2.9,1L66.9,6.1z M34.7,5.4l-0.3-1c1-0.3,1.9-0.6,2.9-0.8l0.2,1
	C36.6,4.8,35.6,5.1,34.7,5.4z M61.2,4.4c-1-0.2-1.9-0.4-2.9-0.6l0.2-1c1,0.2,2,0.4,3,0.6L61.2,4.4z M40.5,4l-0.2-1
	c1-0.2,2-0.3,3-0.5l0.1,1C42.5,3.6,41.5,3.8,40.5,4z M55.4,3.3c-1-0.1-2-0.2-3-0.3l0.1-1c1,0.1,2,0.1,3,0.3L55.4,3.3z M46.4,3.2
	l-0.1-1c1-0.1,2-0.2,3-0.2l0,1C48.4,3,47.4,3.1,46.4,3.2z"/>
<g>
	<path class="st1" d="M27,72.9c-0.4,0-0.8-0.3-0.8-0.8V25c0-4.3,3.3-7.9,7.4-7.9h38.4c0.4,0,0.8,0.3,0.8,0.8v48.5
		c0,0.4-0.3,0.8-0.8,0.8h-4c-0.4,0-0.8-0.3-0.8-0.8s0.3-0.8,0.8-0.8h3.2v-47H33.7c-3.2,0-5.9,2.9-5.9,6.4v47.1
		C27.8,72.5,27.4,72.9,27,72.9z"/>
	<path class="st1" d="M72.1,80H49.6c-0.4,0-0.8-0.3-0.8-0.8s0.3-0.8,0.8-0.8h21.8V67.2H33.1c-3,0-5.3,2.5-5.3,5.6
		c0,3.2,2.4,5.7,5.3,5.7h3.2c0.4,0,0.8,0.3,0.8,0.8S36.7,80,36.3,80h-3.2c-3.7,0-6.7-3.2-6.8-7.1c0,0,0,0,0-0.1v-0.1c0,0,0,0,0-0.1
		c0.1-3.9,3.1-7,6.8-7h39c0.4,0,0.8,0.3,0.8,0.8v12.8C72.8,79.7,72.5,80,72.1,80z"/>
	<path class="st1" d="M66.8,74.3H46.9c-0.4,0-0.8-0.3-0.8-0.8s0.3-0.8,0.8-0.8H66v-6.4c0-0.4,0.3-0.8,0.8-0.8s0.8,0.3,0.8,0.8v7.1
		C67.5,74,67.2,74.3,66.8,74.3z"/>
	<path class="st1" d="M39,74.3h-8c-0.4,0-0.8-0.3-0.8-0.8s0.3-0.8,0.8-0.8h8c0.4,0,0.8,0.3,0.8,0.8S39.4,74.3,39,74.3z"/>
	<path class="st1" d="M46.9,82.9c-0.1,0-0.3,0-0.4-0.1l-3.6-2.4l-3.6,2.4c-0.2,0.2-0.5,0.2-0.8,0c-0.2-0.1-0.4-0.4-0.4-0.7V70.7
		c0-0.4,0.3-0.8,0.8-0.8h8c0.4,0,0.8,0.3,0.8,0.8v11.4c0,0.3-0.2,0.5-0.4,0.7C47.2,82.8,47,82.9,46.9,82.9z M42.9,78.7
		c0.1,0,0.3,0,0.4,0.1l2.8,1.9v-9.3h-6.5v9.3l2.8-1.9C42.6,78.8,42.8,78.7,42.9,78.7z"/>
	<path class="st1" d="M33.7,62.9c-0.4,0-0.8-0.3-0.8-0.8V22.2c0-0.4,0.3-0.8,0.8-0.8s0.8,0.3,0.8,0.8v39.9
		C34.4,62.5,34.1,62.9,33.7,62.9z"/>
	<path class="st1" d="M52.2,55.7c-0.4,0-0.8-0.3-0.8-0.8V30.7c0-0.4,0.3-0.8,0.8-0.8s0.8,0.3,0.8,0.8V55
		C53,55.4,52.6,55.7,52.2,55.7z"/>
	<path class="st1" d="M56.2,55.7h-8c-0.4,0-0.8-0.3-0.8-0.8s0.3-0.8,0.8-0.8h8c0.4,0,0.8,0.3,0.8,0.8S56.6,55.7,56.2,55.7z"/>
	<path class="st1" d="M52.2,45.8h-2.7c-3.7,0-4.7-3.3-4.7-5v-2.9c0-2.4-1-5-3.2-5c-0.4,0-0.8-0.3-0.8-0.8s0.3-0.8,0.8-0.8
		c3.2,0,4.7,3.3,4.7,6.5v2.9c0,0.4,0.1,3.5,3.2,3.5h2.7c0.4,0,0.8,0.3,0.8,0.8S52.6,45.8,52.2,45.8z"/>
	<path class="st1" d="M54.9,45.8h-2.7c-0.4,0-0.8-0.3-0.8-0.8s0.3-0.8,0.8-0.8h2.7c3.1,0,3.2-3.2,3.2-3.5v-2.9
		c0-3.1,1.5-6.5,4.7-6.5c0.4,0,0.8,0.3,0.8,0.8s-0.3,0.8-0.8,0.8c-2.2,0-3.2,2.6-3.2,5v2.9C59.6,42.5,58.6,45.8,54.9,45.8z"/>
</g>
</svg>
