<?xml version="1.0" encoding="utf-8"?>
<!-- Generator: Adobe Illustrator 26.0.2, SVG Export Plug-In . SVG Version: 6.00 Build 0)  -->
<svg version="1.1" id="Слой_1" xmlns="http://www.w3.org/2000/svg" xmlns:xlink="http://www.w3.org/1999/xlink" x="0px" y="0px"
	 viewBox="0 0 80 80" style="enable-background:new 0 0 80 80;" xml:space="preserve">
<style type="text/css">
	.st0{fill:#424F91;}
	.st1{fill:#FFFFFF;}
</style>
<g>
	<path class="st0" d="M40.3,1.7C61.7,1.8,79,19.1,78.9,40.4c0,21.8-17.3,38.9-39.1,38.9c-21.2,0-38.7-17.7-38.5-39.2
		C1.6,18.9,18.9,1.7,40.3,1.7z M51.1,16.5c-2.8,0-5.4,0-8.1,0c-5,0.1-8.5,3.2-9,8.2c-0.2,2.3,0,4.7,0,7.2c-1.8,0-3.3,0-4.8,0
		c0,2.9,0,5.6,0,8.4c1.5,0,3,0,4.6,0c0,8,0,15.9,0,23.8c3.4,0,6.5,0,9.9,0c0-8,0-15.9,0-23.9c2.4,0,4.5,0,6.7,0
		c0.3-2.8,0.6-5.5,0.9-8.3c-2.6,0-5,0-7.4,0c-0.1-0.3-0.2-0.4-0.2-0.6c0-1.4,0-2.8,0-4.1c0.1-1.9,0.8-2.6,2.6-2.6c1.6,0,3.1,0,4.8,0
		C51.1,21.8,51.1,19.3,51.1,16.5z"/>
	<path class="st1" d="M51.1,16.5c0,2.8,0,5.3,0,8.1c-1.6,0-3.2,0-4.8,0c-1.9,0-2.6,0.7-2.6,2.6c0,1.4,0,2.8,0,4.1
		c0,0.1,0.1,0.3,0.2,0.6c2.4,0,4.8,0,7.4,0c-0.3,2.8-0.6,5.5-0.9,8.3c-2.2,0-4.3,0-6.7,0c0,8.1,0,15.9,0,23.9c-3.4,0-6.5,0-9.9,0
		c0-7.9,0-15.8,0-23.8c-1.6,0-3.1,0-4.6,0c0-2.8,0-5.5,0-8.4c1.4,0,2.9,0,4.8,0c0-2.5-0.2-4.9,0-7.2c0.5-5,4-8.1,9-8.2
		C45.7,16.4,48.3,16.5,51.1,16.5z"/>
</g>
</svg>
