<?xml version="1.0" encoding="utf-8"?>
<!-- Generator: Adobe Illustrator 26.0.2, SVG Export Plug-In . SVG Version: 6.00 Build 0)  -->
<svg version="1.1" id="Слой_1" xmlns="http://www.w3.org/2000/svg" xmlns:xlink="http://www.w3.org/1999/xlink" x="0px" y="0px"
	 viewBox="0 0 80 80" style="enable-background:new 0 0 80 80;" xml:space="preserve">
<style type="text/css">
	.st0{fill-rule:evenodd;clip-rule:evenodd;fill:#27ADD6;}
</style>
<g>
	<path class="st0" d="M37.2,46.8C37.2,46.8,37.2,46.7,37.2,46.8l16.1-19.6l-24,15.1l3.5,12.4L37.2,46.8L37.2,46.8z"/>
	<polygon class="st0" points="47.1,28.3 20.6,39.1 27.7,40.5 	"/>
	<polygon class="st0" points="39.7,47.2 49.9,55.5 56.4,26.9 	"/>
	<path class="st0" d="M40.1,0.5C18.2,0.5,0.6,18.2,0.6,40s17.7,39.5,39.5,39.5S79.6,61.8,79.6,40S61.9,0.5,40.1,0.5z M59.7,22.6
		C59.7,22.6,59.7,22.7,59.7,22.6l-7.9,35.2c-0.1,0.4-0.4,0.7-0.7,0.8c-0.4,0.1-0.8,0.1-1.1-0.2l-11.4-9.3l-5,9
		c-0.2,0.4-0.7,0.6-1.1,0.6c-0.5-0.1-0.8-0.4-1-0.8l-4.3-15.2l-10.7-2.1c-0.5-0.1-0.9-0.5-0.9-1s0.2-1,0.7-1.2l41.9-17l0,0
		c0,0,0,0,0.1,0h0.1h0.1l0,0h0.1h0.1h0.1c0,0,0,0,0.1,0H59h0.1h0.1l0,0l0,0h0.1c0,0,0.1,0,0.1,0.1l0,0l0,0l0,0l0,0l0,0l0.1,0.1
		c0,0,0,0.1,0.1,0.1l0,0l0,0l0,0c0,0,0,0.1,0.1,0.1v0.1l0,0V22v0.1c0,0,0,0,0,0.1c0,0,0,0,0,0.1v0.1C59.7,22.5,59.7,22.6,59.7,22.6z
		"/>
</g>
</svg>
