<?xml version="1.0" encoding="utf-8"?>
<!-- Generator: Adobe Illustrator 26.0.2, SVG Export Plug-In . SVG Version: 6.00 Build 0)  -->
<svg version="1.1" id="Слой_1" xmlns="http://www.w3.org/2000/svg" xmlns:xlink="http://www.w3.org/1999/xlink" x="0px" y="0px"
	 viewBox="0 0 80 80" style="enable-background:new 0 0 80 80;" xml:space="preserve">
<style type="text/css">
	.st0{fill:#54B162;}
	.st1{fill-rule:evenodd;clip-rule:evenodd;fill:#FDFDFD;}
</style>
<path class="st0" d="M40,79.5c21.8,0,39.5-17.7,39.5-39.5S61.8,0.5,40,0.5S0.5,18.2,0.5,40S18.2,79.5,40,79.5z"/>
<path class="st1" d="M41.3,62L41.3,62c-3.9,0-7.8-1-11.2-2.9l-12.5,3.3l3.3-12.2c-2.1-3.6-3.1-7.6-3.1-11.7
	c0-13,10.5-23.5,23.5-23.5c6.3,0,12.2,2.4,16.6,6.9c4.4,4.4,6.9,10.3,6.9,16.6C64.8,51.4,54.3,62,41.3,62z M30.6,54.9l0.7,0.4
	c3,1.8,6.4,2.7,9.9,2.7l0,0c10.8,0,19.5-8.8,19.5-19.5c0-5.2-2-10.1-5.7-13.8C51.4,21,46.5,19,41.3,19c-10.8,0-19.5,8.8-19.5,19.5
	c0,3.7,1,7.3,3,10.4l0.5,0.7l-2,7.2L30.6,54.9z M52.3,43.5c0.4,0.2,0.7,0.3,0.8,0.5s0.1,1.4-0.3,2.8c-0.5,1.4-2.8,2.6-4,2.8
	c-1,0.2-2.3,0.2-3.7-0.2c-0.9-0.3-1.9-0.6-3.3-1.2c-5.5-2.4-9.2-7.7-9.9-8.7c0-0.1-0.1-0.1-0.1-0.1l0,0c-0.3-0.4-2.4-3.2-2.4-6.1
	c0-2.7,1.3-4.1,1.9-4.8l0.1-0.1c0.5-0.6,1.2-0.7,1.6-0.7s0.8,0,1.1,0h0.1c0.3,0,0.8,0,1.2,1c0.2,0.4,0.4,1,0.6,1.6
	c0.5,1.2,1.1,2.6,1.2,2.8c0.1,0.3,0.2,0.6,0,1c0,0.1-0.1,0.1-0.1,0.2c-0.1,0.3-0.3,0.5-0.5,0.8c-0.1,0.1-0.2,0.2-0.3,0.4
	c-0.2,0.2-0.4,0.5-0.6,0.7c-0.3,0.3-0.6,0.6-0.3,1.2c0.3,0.6,1.5,2.5,3.3,4.1c1.9,1.7,3.5,2.4,4.3,2.7c0.2,0.1,0.3,0.1,0.4,0.2
	c0.6,0.3,0.9,0.2,1.3-0.1c0.3-0.4,1.5-1.7,1.9-2.3s0.8-0.5,1.3-0.3s3.4,1.6,4,1.9C52.1,43.4,52.2,43.5,52.3,43.5z"/>
</svg>
